<svg xmlns="http://www.w3.org/2000/svg" xmlns:xlink="http://www.w3.org/1999/xlink" xmlns:fi="http://pattern.flaticon.com/" x="0" y="0" width="300" height="151" viewBox="0 0 350 176.16666666666669"><rect x="0px" y="0px" width="100%" height="100%" opacity="1" fill="#ffffff"/><defs><g transform="matrix(0.7902419523962277 -0.11973363035710673 0.11973363035710673 0.7902419523962277 315.71101239468015 67.89061705651334)" id="L1_0"><circle cx="46" cy="5" r="1"/><circle cx="33" cy="24" r="1"/><path d="M57,33V19c0-4.411-3.589-8-8-8s-8,3.589-8,8v14c0,4.411,3.589,8,8,8S57,37.411,57,33z M49,13c3.309,0,6,2.691,6,6v6H43v-6   C43,15.691,45.691,13,49,13z M49,39c-3.309,0-6-2.691-6-6v-6h12v6C55,36.309,52.309,39,49,39z"/><path d="M22.234,36.452l-9.899,9.899C10.829,47.857,10,49.866,10,52.008c0,2.143,0.829,4.151,2.335,5.657   C13.84,59.171,15.849,60,17.992,60c2.142,0,4.151-0.829,5.657-2.335l9.899-9.899c3.119-3.119,3.119-8.194,0-11.313   C30.428,33.333,25.353,33.333,22.234,36.452z M22.234,56.251C21.106,57.379,19.6,58,17.992,58c-1.608,0-3.115-0.621-4.243-1.749   S12,53.617,12,52.008c0-1.608,0.621-3.115,1.749-4.243l4.243-4.243l8.485,8.485L22.234,56.251z M32.134,46.352l-4.243,4.243   l-8.485-8.485l4.243-4.243c1.17-1.169,2.706-1.754,4.243-1.754c1.536,0,3.073,0.585,4.243,1.754   C34.473,40.206,34.473,44.012,32.134,46.352z"/><path d="M13.234,23.548c1.56,1.56,3.608,2.339,5.657,2.339c2.048,0,4.097-0.78,5.657-2.339c3.119-3.12,3.119-8.195,0-11.313   l-9.899-9.899C13.143,0.829,11.134,0,8.992,0C6.849,0,4.84,0.829,3.335,2.335C1.829,3.84,1,5.849,1,7.992   c0,2.142,0.829,4.151,2.335,5.657L13.234,23.548z M23.134,22.134c-2.34,2.339-6.146,2.339-8.485,0l-4.243-4.243l8.485-8.485   l4.243,4.243C25.473,15.988,25.473,19.794,23.134,22.134z M4.749,3.749C5.877,2.621,7.383,2,8.992,2   c1.608,0,3.115,0.621,4.243,1.749l4.243,4.243l-8.485,8.485l-4.243-4.243C3.621,11.106,3,9.6,3,7.992   C3,6.383,3.621,4.877,4.749,3.749z"/><path d="M11.171,36c0.552,0,1-0.448,1-1s-0.448-1-1-1h-3v-3c0-0.552-0.448-1-1-1s-1,0.448-1,1v3h-3c-0.552,0-1,0.448-1,1   s0.448,1,1,1h3v3c0,0.552,0.448,1,1,1s1-0.448,1-1v-3H11.171z"/><path d="M56.586,53.828l2.121-2.121c0.391-0.391,0.391-1.023,0-1.414s-1.023-0.391-1.414,0l-2.121,2.121l-2.121-2.121   c-0.391-0.391-1.023-0.391-1.414,0s-0.391,1.023,0,1.414l2.121,2.121l-2.121,2.121c-0.391,0.391-0.391,1.023,0,1.414   c0.195,0.195,0.451,0.293,0.707,0.293s0.512-0.098,0.707-0.293l2.121-2.121l2.121,2.121c0.195,0.195,0.451,0.293,0.707,0.293   s0.512-0.098,0.707-0.293c0.391-0.391,0.391-1.023,0-1.414L56.586,53.828z"/></g><g transform="matrix(0.6431541156284222 0.10290465616715903 -0.10290465616715903 0.6431541156284222 170.6873819120602 74.76096826809368)" id="L1_1"><path d="M53.065,10.657c-0.819-3.095-3.213-6.049-6.743-8.317c-4.35-2.797-10.498-3.108-16.049-0.813l-0.177,0.076   c-0.098,0.042-0.193,0.085-0.294,0.12c-0.465,0.161-0.822,0.3-1.112,0.412c-0.924,0.359-0.923,0.358-2.442-0.089   c-4.334-1.277-9.852-2.553-14.086-1.053c-5.73,2.031-10.809,8.752-9.238,19.19c0.186,1.235,0.367,2.481,0.549,3.732   c1.312,9.016,2.668,18.339,6.155,26.757l0.119,0.288c0.866,2.108,2.315,5.638,4.837,5.638h0.203l0.187-0.079   c2.313-0.979,3.18-3.202,3.812-4.824c0.427-1.095,0.807-2.211,1.174-3.289c0.483-1.418,0.954-2.794,1.516-4.114   c1.27,2.585,3.865,6.8,7.292,6.8c0.402,0,0.816-0.058,1.24-0.184c2.253-0.668,3.383-2.995,4.209-4.694l0.067-0.139   c0.174-0.357,0.395-0.771,0.633-1.22c0.238-0.447,0.498-0.944,0.754-1.455c0.25,0.807,0.468,1.636,0.683,2.458   c0.239,0.913,0.485,1.857,0.771,2.739c1.21,3.729,2.782,7.574,5.267,7.829c1.309,0.136,2.516-0.751,3.589-2.631   c1.958-3.431,2.798-7.255,3.61-10.953l0.288-1.3c0.32-1.43,0.676-2.904,1.039-4.412C52.961,28.64,55.277,19.018,53.065,10.657z    M33.151,43.916c-0.251,0.472-0.482,0.908-0.666,1.284l-0.068,0.14c-0.7,1.44-1.571,3.233-2.978,3.65   c-3.324,1-6.392-6.003-6.73-6.804l-0.088-0.211c0.107-0.19,0.209-0.363,0.311-0.531c0.133-0.215,0.266-0.431,0.41-0.642   c1.197-1.75,4.428-5.561,8.555-3.101c0.321,0.191,0.612,0.41,0.885,0.644c0.099,0.085,0.19,0.184,0.285,0.277   c0.158,0.153,0.314,0.309,0.456,0.476c0.131,0.155,0.255,0.323,0.378,0.494c0.081,0.112,0.162,0.223,0.238,0.339   c0.159,0.248,0.313,0.512,0.459,0.794c0.016,0.031,0.033,0.061,0.049,0.092C34.256,41.84,33.673,42.936,33.151,43.916z    M48.973,36.662c-0.366,1.519-0.723,3.004-1.045,4.443l-0.29,1.309c-0.781,3.552-1.587,7.224-3.395,10.391   c-0.608,1.066-1.226,1.654-1.647,1.633c-0.458-0.048-1.724-0.771-3.569-6.457c-0.268-0.826-0.497-1.701-0.738-2.628   c-0.789-3.022-1.674-6.398-4.246-8.567c-0.008-0.007-0.016-0.012-0.024-0.019c-0.337-0.282-0.7-0.546-1.098-0.783   c-3.817-2.271-8.12-0.857-11.23,3.69c-1.733,2.535-2.694,5.357-3.624,8.087c-0.361,1.059-0.733,2.153-1.145,3.208   c-0.64,1.642-1.239,2.961-2.511,3.608c-1.135-0.283-2.345-3.231-2.815-4.376l-0.121-0.294c-3.391-8.188-4.729-17.385-6.023-26.279   c-0.183-1.255-0.364-2.503-0.551-3.741c-1.009-6.71,1.051-14.57,7.929-17.009c1.12-0.396,2.388-0.557,3.716-0.557   c3.058,0,6.428,0.849,9.025,1.61c6.423,3.65,6.423,5.228,6.398,11.755l-0.003,1.318c0,0.553,0.448,1,1,1s1-0.447,1-1l0.003-1.312   c0.022-5.721,0.014-8.415-4.557-11.694c0.001,0,0.001,0,0.002-0.001c0.273-0.105,0.608-0.235,1.041-0.387   c0.147-0.05,0.292-0.112,0.439-0.176l0.147-0.063c4.954-2.048,10.395-1.799,14.2,0.648c3.108,1.998,5.2,4.536,5.891,7.147   C53.214,19.041,50.961,28.403,48.973,36.662z"/><path d="M14.5,7.59c0.521-0.185,0.793-0.756,0.608-1.276c-0.185-0.521-0.757-0.794-1.276-0.608   c-5.238,1.856-6.764,8.42-5.964,13.733c0.075,0.496,0.501,0.852,0.987,0.852c0.05,0,0.1-0.004,0.15-0.011   c0.546-0.083,0.922-0.592,0.84-1.138C9.164,14.614,10.33,9.068,14.5,7.59z"/><path d="M47.965,11.004h-1.586L43.965,8.59V7.004c0-0.553-0.448-1-1-1s-1,0.447-1,1V8.59l-2.414,2.414h-1.586c-0.552,0-1,0.447-1,1   s0.448,1,1,1h1.586l2.414,2.414v1.586c0,0.553,0.448,1,1,1s1-0.447,1-1v-1.586l2.414-2.414h1.586c0.552,0,1-0.447,1-1   S48.517,11.004,47.965,11.004z M42.965,13.59l-1.586-1.586l1.586-1.586l1.586,1.586L42.965,13.59z"/><path d="M20.965,29.004h-1.586l-2.414-2.414v-1.586c0-0.553-0.448-1-1-1s-1,0.447-1,1v1.586l-2.414,2.414h-1.586   c-0.552,0-1,0.447-1,1s0.448,1,1,1h1.586l2.414,2.414v1.586c0,0.553,0.448,1,1,1s1-0.447,1-1v-1.586l2.414-2.414h1.586   c0.552,0,1-0.447,1-1S21.517,29.004,20.965,29.004z M15.965,31.59l-1.586-1.586l1.586-1.586l1.586,1.586L15.965,31.59z"/></g><path d="M396.399,67.735c-2.731-14.978-9.574-28.905-19.791-40.284c-0.02-0.022-0.039-0.045-0.059-0.067  c-5.233-5.909-13.905-14.033-25.497-19.181l-0.264-0.117C339.6,2.72,327.594,0,315.105,0c-18.47,0-35.94,5.962-50.522,17.243  c-0.014,0.011-0.08,0.063-0.098,0.076c-12.536,9.789-20.809,23.777-21.833,25.559h0c-0.046,0.078-0.091,0.157-0.134,0.236  c-6.577,12.058-10.053,25.726-10.053,39.527c0,2.866,0.15,5.767,0.448,8.621c0.277,2.667,1.873,5.017,4.248,6.26  c1.504,0.787,3.076,1.442,4.691,1.96c6.438,19.706,20.499,35.466,38.375,44.329c-7.663,3.914-14.545,9.089-20.498,15.418  c-3.027,3.218-2.872,8.281,0.347,11.308c3.218,3.026,8.281,2.871,11.308-0.347c2.861-3.042,5.992-5.744,9.369-8.088  c4.843,13.721,17.325,23.773,31.522,23.773h1.194c14.221,0,26.691-10.773,31.248-25.35c16.893,10.59,27.701,29.458,27.701,49.641  v83.099l-72.764,47.215c-3.707,2.405-4.762,7.359-2.356,11.065c1.532,2.361,4.099,3.646,6.718,3.646c1.493,0,3.002-0.417,4.347-1.29  l76.409-49.58c2.273-1.475,3.646-4.001,3.646-6.711v-87.444c0-28.331-15.816-53.725-40.812-66.396  c23.671-11.814,40.41-35.658,42.05-63.429c2.258-2.047,4.221-4.452,5.791-7.157C396.404,71.54,396.741,69.607,396.399,67.735z   M313.47,169.876h-1.194c-9.574,0-17.663-9.28-17.663-20.265c0-0.137-0.003-0.273-0.01-0.409c6.203,1.631,12.691,2.494,19.344,2.494  c5.686,0,11.235-0.634,16.572-1.835C329.893,160.677,322.195,169.876,313.47,169.876z M313.946,135.696  c-24.123,0-45.512-14.37-54.882-35.91c11.108-3.142,19.605-12.566,21.397-24.173c4.773,0.613,9.61,0.922,14.463,0.922  c16.272,0,31.948-3.411,45.987-9.943c3.618,12.425,15.11,21.531,28.688,21.531c0.99,0,1.974-0.05,2.949-0.148  C366.907,115.155,342.701,135.696,313.946,135.696z M369.599,72.124c-7.649,0-13.872-6.221-13.872-13.869v-4.452  c0-2.911-1.581-5.592-4.129-7.001c-2.549-1.41-5.661-1.323-8.125,0.226c-14.077,8.837-30.865,13.508-48.55,13.508  c-6.916,0-13.786-0.729-20.419-2.167c-2.363-0.513-4.833,0.072-6.717,1.591c-1.883,1.519-2.978,3.808-2.978,6.227v4.853  c0,7.647-6.222,13.869-13.87,13.869c-0.524,0-1.042-0.029-1.554-0.086c-0.119-0.018-0.238-0.033-0.357-0.045  c-0.179-0.024-0.356-0.053-0.533-0.084c-0.021-0.686-0.032-1.37-0.032-2.052c0-11.1,2.785-22.088,8.055-31.783  c0.021-0.039,0.043-0.077,0.06-0.106c0.068-0.123,7.294-12.65,17.741-20.813c0.021-0.017,0.048-0.037,0.053-0.041  C286.126,20.806,300.211,16,315.105,16c10.075,0,19.753,2.191,28.764,6.512c0.156,0.075,0.387,0.18,0.689,0.313  c8.897,3.952,15.728,10.348,19.918,15.059c0.046,0.054,0.093,0.107,0.141,0.161c7.55,8.377,12.826,18.469,15.374,29.354  C377.374,70.363,373.59,72.124,369.599,72.124z M245.81,276.808c18.128-10.667,30.322-30.386,30.322-52.897  c0-10.13-2.47-19.696-6.837-28.125c-0.157-0.354-0.336-0.691-0.536-1.011c-10.386-19.154-30.676-32.191-53.954-32.191  c-23.283,0-43.577,13.041-53.96,32.204c-0.194,0.312-0.369,0.641-0.522,0.985c-4.373,8.432-6.844,18.002-6.844,28.138  c0,22.507,12.188,42.222,30.311,52.89c-22.433,11.597-36.643,34.617-36.643,60.093v29.178c0,2.735,1.397,5.28,3.704,6.749  l59.659,37.98c1.311,0.834,2.803,1.251,4.296,1.251c1.484,0,2.968-0.412,4.273-1.237l59.8-37.781  c2.332-1.473,3.74-4.043,3.727-6.801l-0.141-29.377C282.343,311.32,268.148,288.376,245.81,276.808z M214.805,178.584  c13.925,0,26.401,6.31,34.723,16.222c-10.78,3.089-22.602,4.7-34.721,4.7c-12.123,0-23.946-1.611-34.725-4.7  C188.404,184.894,200.881,178.584,214.805,178.584z M169.478,223.911c0-5.197,0.879-10.194,2.497-14.847  c13.201,4.228,27.85,6.442,42.832,6.442c14.978,0,29.625-2.214,42.828-6.442c1.618,4.653,2.497,9.65,2.497,14.847  c0,24.993-20.333,45.327-45.327,45.327C189.812,269.238,169.478,248.904,169.478,223.911z M229.005,283.579  c-1,7.568-7.638,12.684-13.644,12.684h-0.974c-6.361,0-13.425-5.38-14.34-12.82c4.728,1.172,9.672,1.795,14.757,1.795  C219.69,285.238,224.446,284.663,229.005,283.579z M214.822,394.58l-51.676-32.898v-24.787c0-17.591,8.888-33.653,23.275-43.119  c4.999,11.407,16.783,18.487,27.966,18.487h0.974c12.073,0,22.745-7.857,27.355-18.773c14.595,9.41,23.663,25.598,23.748,43.443  l0.12,24.944L214.822,394.58z M157.359,179.842c2.332-3.753,1.18-8.686-2.572-11.018c-2.436-1.514-4.962-2.887-7.554-4.109  c9.886-5.054,18.631-12.293,25.573-21.348c2.859,0.992,5.928,1.532,9.12,1.532c15.373,0,27.88-12.507,27.88-27.88V97.138  c0-25.272-9.654-49.207-27.183-67.394C165.144,11.61,141.678,1.076,116.548,0.082c-0.002,0-0.005,0-0.007,0  c-2.184-0.084-4.217-0.104-6.216-0.055c-25.018,0.604-48.617,10.73-66.45,28.512c-18.283,18.23-28.352,42.593-28.352,68.6v19.881  c0,15.373,12.507,27.88,27.881,27.88c3.192,0,6.26-0.539,9.118-1.531c7.647,9.974,17.483,17.745,28.622,22.819  c-24.685,12.982-39.953,38.112-39.953,65.94v65.484c0,2.71,1.372,5.236,3.646,6.711l72.575,47.091  c1.345,0.873,2.854,1.29,4.347,1.29c2.619,0,5.187-1.286,6.718-3.646c2.405-3.707,1.35-8.661-2.356-11.065l-68.93-44.726v-61.139  c0-18.51,8.619-35.505,23.058-46.472c4.952,14.37,17.668,25.167,31.728,25.167h1.194c15.27,0,27.458-13.822,31.75-29.264  c0.477,0.278,0.95,0.563,1.419,0.854C150.094,184.747,155.027,183.594,157.359,179.842z M63.19,68.063  c-5.172,8.784-7.906,18.838-7.906,29.076v19.881c0,3.79-1.784,7.171-4.557,9.348c-0.238,0.155-0.465,0.321-0.681,0.497  c-1.897,1.285-4.184,2.035-6.643,2.035c-6.551,0-11.88-5.329-11.88-11.88V97.138c0-44.413,34.784-80.043,79.185-81.117  c1.66-0.041,3.365-0.023,5.213,0.048c43.673,1.731,77.884,37.34,77.884,81.069v19.881c0,6.551-5.33,11.88-11.881,11.88  c-2.459,0-4.747-0.751-6.645-2.036c-0.215-0.175-0.441-0.34-0.678-0.495c-2.773-2.177-4.558-5.559-4.558-9.349V97.138  c0-28.238-21.036-52.64-48.932-56.761c-2.193-0.326-4.422,0.276-6.155,1.658c-1.733,1.382-2.816,3.42-2.99,5.63  c-0.439,5.592-1.453,11.106-3.022,16.457H70.083C67.25,64.122,64.627,65.621,63.19,68.063z M113.171,194.823h-1.194  c-9.044,0-17.921-10.979-17.921-22.166c0-0.69-0.089-1.369-0.259-2.02c6.076,1.545,12.403,2.35,18.868,2.35  c6.12,0,12.118-0.722,17.895-2.109C130.016,182.511,121.212,194.823,113.171,194.823z M112.665,156.987  c-18.646,0-35.855-8.489-47.161-22.99c3.622-4.705,5.779-10.595,5.779-16.978V97.138c0-5.893,1.254-11.698,3.652-17.016h39.783  c3.349,0,6.343-2.085,7.504-5.227c2-5.41,3.509-10.991,4.513-16.675c16.017,5.83,27.309,21.343,27.309,38.918v19.881  c0,6.383,2.157,12.273,5.78,16.978C148.519,148.499,131.311,156.987,112.665,156.987z" transform="matrix(0.08551394194364548 0 0 0.08551394194364548 204.38819805107585 17.380267783999443)" id="L1_2"/><g transform="matrix(0.0885608121752739 0 0 0.0885608121752739 79.32843208312988 9.328432083129883)" id="L1_3"><path d="M111.445,218.394c-46.959,22.639-77.312,70.895-77.312,122.94c0,75.281,61.252,136.533,136.533,136.533     c52.062,0,100.309-30.353,122.94-77.321c2.039-4.241,0.256-9.344-3.994-11.392c-4.232-2.039-9.344-0.256-11.392,3.985     c-19.789,41.105-62.012,67.661-107.554,67.661C104.798,460.8,51.2,407.211,51.2,341.333c0-45.534,26.564-87.757,67.661-107.563     c4.241-2.048,6.024-7.142,3.977-11.392C120.798,218.138,115.729,216.346,111.445,218.394z"/><path d="M334.515,250.88c-2.825,3.763-2.074,9.105,1.698,11.938c1.536,1.152,3.336,1.707,5.111,1.707     c2.594,0,5.154-1.169,6.827-3.396c0.247-0.324,24.294-31.838,54.989-39.518C472.329,204.314,512,163.968,512,110.933     c0-30.49-12.373-58.146-32.35-78.217c-0.06-0.06-0.077-0.154-0.145-0.213c-0.068-0.068-0.154-0.085-0.222-0.154     C459.213,12.373,431.565,0,401.067,0c-53.035,0-93.38,39.68-110.669,108.86c-5.786,23.108-40.832,58.615-59.648,75.691     l-96.717-96.725c-5.658-5.649-14.071-8.892-23.1-8.892c-9.02,0-17.434,3.243-23.1,8.9L70.767,104.9     c-12.092,12.083-12.092,34.099-0.009,46.191l33.229,33.229C41.267,210.893,0,272.384,0,341.333C0,435.439,76.561,512,170.667,512     c68.966,0,130.458-41.267,157.013-103.996l33.229,33.229c5.658,5.658,14.071,8.9,23.091,8.9c9.028,0,17.442-3.243,23.108-8.9     l17.067-17.067c5.658-5.658,8.892-14.071,8.9-23.091c0-9.028-3.234-17.451-8.9-23.108L242.833,196.625     c16.401-14.984,56.755-54.178,64.111-83.618c8.96-35.831,33.101-95.94,94.123-95.94c22.818,0,43.733,8.192,60.032,21.777     l-6.332,6.323c-3.328,3.337-3.328,8.73,0,12.066c1.673,1.664,3.857,2.5,6.033,2.5c2.185,0,4.369-0.836,6.042-2.5l6.323-6.323     c13.577,16.282,21.768,37.214,21.768,60.023c0,61.022-60.1,85.163-95.932,94.123C362.351,214.212,335.633,249.387,334.515,250.88     z M170.667,494.933c-84.685,0-153.6-68.907-153.6-153.6c0-64.392,39.996-121.557,100.053-143.872l197.427,197.41     C292.241,454.938,235.068,494.933,170.667,494.933z M412.109,390.042c2.449,2.44,3.9,6.562,3.9,11.025     c0,4.463-1.459,8.585-3.908,11.034l-17.067,17.067c-2.441,2.441-6.562,3.9-11.034,3.9c-4.463,0-8.576-1.451-11.025-3.9     L82.833,139.025c-5.359-5.359-5.35-16.7,0.009-22.059L99.9,99.9c2.449-2.44,6.571-3.9,11.034-3.9     c4.471,0,8.585,1.451,11.025,3.891L412.109,390.042z"/><path d="M453.316,163.405c2.432,0,4.847-1.033,6.528-3.038c11.622-13.807,18.022-31.36,18.022-49.434     c0-4.71-3.814-8.533-8.533-8.533c-4.71,0-8.533,3.823-8.533,8.533c0,14.054-4.975,27.708-14.003,38.443     c-3.046,3.61-2.577,8.994,1.033,12.023C449.425,162.748,451.379,163.405,453.316,163.405z"/></g><g transform="matrix(0.08349167405100769 0.01518030481676298 -0.01518030481676298 0.08349167405100769 84.88288250136657 103.39579121747893)" id="L1_4"><path d="M314.668,429.019h-48.477c-61.9,0-110.404-47.714-110.404-108.635c0-7.435,6.034-13.468,13.468-13.468     c7.434,0,13.468,6.034,13.468,13.468c0,45.81,36.661,81.69,83.467,81.69h48.477c46.807,0,83.467-35.089,83.467-79.885     c0-7.443,6.025-13.468,13.468-13.468c7.434,0,13.468,6.025,13.468,13.468C425.072,382.095,376.569,429.019,314.668,429.019z" id="path-1_46_"/><path d="M227.205,204.889c-3.448,0-6.896-1.32-9.527-3.951c-12.768-12.759-33.859-13.217-46.106-0.979     c-5.262,5.262-13.783,5.262-19.044,0s-5.262-13.792,0-19.053c22.555-22.555,61.11-22.115,84.195,0.988     c5.262,5.253,5.262,13.792,0,19.044C234.092,203.569,230.644,204.889,227.205,204.889z" id="path-2_46_"/><path d="M410.401,204.889c-3.448,0-6.896-1.32-9.527-3.951c-12.768-12.759-33.859-13.217-46.106-0.979     c-5.253,5.262-13.783,5.262-19.044,0c-5.253-5.262-5.253-13.792,0-19.053c22.555-22.555,61.11-22.115,84.195,0.988     c5.262,5.253,5.262,13.792,0,19.044C417.288,203.569,413.849,204.889,410.401,204.889z" id="path-3_46_"/><path d="M279.732,559.464c-154.212,0-279.664-125.488-279.664-279.727C0.067,125.488,125.511,0,279.732,0     c154.203,0,279.664,125.488,279.664,279.736C559.387,433.975,433.926,559.464,279.732,559.464z M279.732,26.946     c-139.352,0-252.728,113.403-252.728,252.791S140.38,532.527,279.732,532.527c139.361,0,252.728-113.403,252.728-252.791     S419.084,26.946,279.732,26.946z" id="path-4_46_"/></g><g transform="matrix(0.8573796710600049 -0.1513022885907309 0.1513022885907309 0.8573796710600049 2.76035961501157 7.374388575796729)" id="L1_5"><path d="M24.244,28.025c0.391-0.391,0.391-1.023,0-1.414c-2.974-2.974-7.813-2.973-10.787,0c-0.391,0.391-0.391,1.023,0,1.414   s1.023,0.391,1.414,0c2.195-2.194,5.765-2.194,7.958,0c0.195,0.195,0.451,0.293,0.707,0.293S24.048,28.221,24.244,28.025z"/><path d="M38.857,24.376c-2.037,0-3.952,0.794-5.393,2.235c-0.391,0.391-0.391,1.024,0,1.414c0.391,0.391,1.024,0.391,1.414,0   c1.063-1.063,2.476-1.649,3.979-1.649s2.916,0.586,3.979,1.649c0.195,0.195,0.451,0.293,0.707,0.293s0.512-0.098,0.707-0.293   c0.391-0.391,0.391-1.023,0-1.414C42.809,25.17,40.894,24.376,38.857,24.376z"/><path d="M32.757,42.346c-2.152,2.151-5.655,2.152-7.808,0c-0.391-0.39-1.024-0.39-1.415,0c-0.39,0.391-0.39,1.024,0,1.415   c1.467,1.465,3.393,2.198,5.319,2.198s3.852-0.733,5.317-2.199c0.391-0.391,0.391-1.023,0-1.414S33.148,41.955,32.757,42.346z"/><path d="M57.96,31.884c0-3.043-2.157-5.551-4.909-5.841c-1.187-5.425-4.181-10.305-8.613-13.883   c0.002-0.026,0.004-0.051,0.004-0.077c0-1.617,0.49-4.186,1.38-7.232c0.073-0.251,0.07-0.51,0.007-0.755   c0.037-0.295,0.003-0.59-0.115-0.881c-0.947-2.32-5.886-1.026-8.656,0.105c-2.45,1-4.49,2.299-5.545,3.503   c-0.581-0.446-1.289-0.708-2.064-0.708h-0.585c-0.903,0-1.722,0.328-2.375,0.854c-1.178-1.451-3.618-2.815-5.662-3.649   c-1.834-0.749-3.663-1.234-5.148-1.366c-2.39-0.21-3.226,0.568-3.508,1.261c-0.296,0.725-0.066,1.472,0.475,2.189   c0.746,2.649,1.161,4.83,1.218,6.431c-4.669,3.608-7.806,8.607-9.023,14.218C2.122,26.376,0,28.866,0,31.884   c0,3.115,2.262,5.665,5.106,5.854c2.819,10.528,12.438,18.305,23.842,18.305c11.403,0,21.02-7.775,23.841-18.301   C55.664,37.587,57.96,35.023,57.96,31.884z M33.043,14.408v-3.813c0.125,0.005,0.26-0.001,0.391-0.003   c0.042,0.001,0.077,0.009,0.119,0.009c1.775,0,4.055-0.651,5.903-1.405c0.246-0.1,0.507-0.215,0.774-0.336   c0.081-0.037,0.16-0.072,0.242-0.11c0.234-0.109,0.471-0.225,0.712-0.348c0.113-0.058,0.225-0.118,0.338-0.178   c0.155-0.082,0.309-0.167,0.463-0.255c0.112-0.063,0.223-0.125,0.333-0.19c0.227-0.135,0.451-0.275,0.67-0.419   c0.042-0.027,0.087-0.053,0.129-0.08c-0.376,1.642-0.669,3.36-0.675,4.758c-0.034,0.436-0.17,3.124,1.41,5.458   c-2.318,0.117-7.873,0.135-10.809-2.146V14.408z M37.814,5.171c3.153-1.287,5.293-1.364,5.949-1.173   c-0.026,0.051-0.041,0.096-0.082,0.154c-0.002,0.002-0.003,0.004-0.005,0.007c-0.059,0.085-0.144,0.181-0.234,0.28   c-0.032,0.035-0.059,0.067-0.095,0.103c-0.064,0.066-0.146,0.138-0.222,0.208c-0.074,0.068-0.141,0.133-0.227,0.205   c-0.065,0.054-0.144,0.113-0.216,0.169c-0.112,0.088-0.219,0.175-0.347,0.268c-0.117,0.084-0.254,0.172-0.384,0.259   c-0.103,0.069-0.195,0.135-0.307,0.206c-0.782,0.491-1.765,1.007-2.943,1.487c-2.089,0.853-3.969,1.212-5.161,1.25   c-0.105,0-0.21,0.001-0.3-0.005c-0.023-0.191-0.066-0.378-0.128-0.559C33.868,7.23,35.501,6.114,37.814,5.171z M28.863,8.113h0.585   c0.998,0,1.595,1.008,1.595,1.982v4.312c0,1.014-0.611,1.644-1.595,1.644h-0.585c-1,0-1.813-0.813-1.813-1.813V9.926   C27.05,8.927,27.864,8.113,28.863,8.113z M15.87,12.038c-0.006-1.308-0.265-2.902-0.603-4.431c0.61,0.378,1.292,0.741,2.017,1.083   c0.021,0.01,0.042,0.02,0.063,0.03c0.136,0.063,0.272,0.126,0.411,0.188c0.23,0.103,0.455,0.201,0.669,0.288   C18.681,9.3,18.943,9.4,19.208,9.498c0.082,0.03,0.165,0.058,0.247,0.087c0.186,0.066,0.372,0.131,0.561,0.192   c0.101,0.033,0.201,0.063,0.303,0.095c0.174,0.054,0.348,0.106,0.522,0.156c0.108,0.03,0.215,0.059,0.323,0.088   c0.17,0.045,0.339,0.087,0.508,0.126c0.109,0.025,0.216,0.05,0.324,0.073c0.17,0.036,0.337,0.068,0.504,0.097   c0.103,0.018,0.206,0.038,0.308,0.054c0.18,0.028,0.356,0.048,0.532,0.068c0.082,0.009,0.167,0.021,0.248,0.028   c0.249,0.021,0.493,0.034,0.727,0.034c0.002,0,0.004,0,0.006,0c0.255,0,0.499-0.013,0.73-0.042v3.685v1.106   c-2.804,2.194-7.797,2.292-10.603,2.069C16.039,15.156,15.903,12.473,15.87,12.038z M20.07,5.171   c2.871,1.172,4.586,2.545,5.029,3.266c-0.006,0.031-0.012,0.063-0.017,0.094c-0.003,0.001-0.003,0.002-0.005,0.002   c-0.011,0.003-0.029,0.004-0.041,0.006c-0.09,0.019-0.197,0.035-0.326,0.044c-0.045,0.003-0.102,0.003-0.151,0.005   c-0.11,0.004-0.227,0.006-0.359,0.003c-0.071-0.002-0.152-0.008-0.229-0.013c-0.132-0.008-0.271-0.019-0.421-0.036   c-0.094-0.01-0.195-0.024-0.296-0.038c-0.156-0.022-0.321-0.049-0.492-0.08c-0.114-0.021-0.229-0.043-0.35-0.068   c-0.184-0.039-0.381-0.086-0.581-0.136c-0.126-0.032-0.25-0.061-0.382-0.098c-0.228-0.063-0.471-0.14-0.717-0.218   c-0.121-0.039-0.237-0.072-0.362-0.115c-0.379-0.13-0.773-0.275-1.188-0.444c-0.339-0.138-0.65-0.279-0.954-0.42   c-0.137-0.064-0.272-0.129-0.406-0.195c-0.145-0.071-0.283-0.142-0.418-0.213c-0.156-0.082-0.313-0.163-0.462-0.247   c-0.089-0.05-0.168-0.098-0.252-0.148c-0.238-0.138-0.464-0.278-0.678-0.418c-0.139-0.092-0.283-0.184-0.407-0.273   c-0.062-0.044-0.116-0.088-0.176-0.132c-0.134-0.1-0.265-0.199-0.378-0.292c-0.068-0.056-0.129-0.112-0.192-0.167   c-0.075-0.066-0.151-0.132-0.215-0.194c-0.117-0.114-0.226-0.227-0.316-0.336c-0.005-0.006-0.012-0.009-0.017-0.015   c-0.093-0.112-0.168-0.213-0.211-0.294C14.73,3.802,16.888,3.872,20.07,5.171z M2,31.884c0-1.752,1.048-3.219,2.471-3.694   c-0.132,1.042-0.205,2.099-0.205,3.17c0,1.461,0.135,2.89,0.379,4.281C3.132,35.234,2,33.709,2,31.884z M28.949,54.042   c-12.507,0-22.683-10.175-22.683-22.683c0-6.424,2.635-12.373,7.293-16.658c-0.161,0.518-0.391,1.056-0.746,1.559   c-0.436,0.618-0.503,1.422-0.175,2.097c0.327,0.672,0.969,1.097,1.719,1.136c0.51,0.026,1.088,0.044,1.711,0.044   c3.11,0,7.345-0.471,10.123-2.586c0.689,0.678,1.631,1.099,2.672,1.099h0.585c1.032,0,1.921-0.378,2.559-1.014   c2.782,2.042,7.015,2.502,10.156,2.502c0.653,0,1.258-0.019,1.792-0.046c0.749-0.039,1.391-0.463,1.718-1.135   c0.328-0.675,0.261-1.479-0.175-2.097c-0.211-0.299-0.369-0.612-0.506-0.925c4.246,4.237,6.638,9.944,6.638,16.024   C51.63,43.867,41.456,54.042,28.949,54.042z M53.247,35.665c0.247-1.399,0.384-2.836,0.384-4.305c0-1.078-0.077-2.143-0.212-3.195   c1.46,0.448,2.542,1.938,2.542,3.719C55.96,33.737,54.795,35.287,53.247,35.665z"/></g><g transform="matrix(0.08855725810696934 0.020663360887151653 -0.020663360887151653 0.08855725810696934 232.61916231172668 48.039521537505024)" id="L1_7"><path d="M384,477.867c2.185,0,4.369-0.836,6.033-2.5l51.2-51.2c1.604-1.596,2.5-3.772,2.5-6.033V76.8     c0-4.71-3.814-8.533-8.533-8.533H384c-4.719,0-8.533,3.823-8.533,8.533s3.814,8.533,8.533,8.533h42.667v329.267l-48.7,48.7     c-3.336,3.336-3.336,8.73,0,12.066C379.631,477.03,381.816,477.867,384,477.867z"/><path d="M128,85.333c4.719,0,8.533-3.823,8.533-8.533s-3.814-8.533-8.533-8.533H76.8c-4.719,0-8.533,3.823-8.533,8.533v366.933     c0,18.825,15.309,34.133,34.133,34.133h247.467c4.719,0,8.533-3.823,8.533-8.533v-51.2c0-3.866,3.806-8.533,8.533-8.533h34.133     c4.719,0,8.533-3.823,8.533-8.533s-3.814-8.533-8.533-8.533h-34.133c-13.636,0-25.6,11.964-25.6,25.6V460.8H102.4     c-9.412,0-17.067-7.654-17.067-17.067v-358.4H128z"/><path d="M256,34.133c-9.412,0-17.067,7.654-17.067,17.067c0,9.412,7.654,17.067,17.067,17.067     c9.412,0,17.067-7.654,17.067-17.067C273.067,41.788,265.412,34.133,256,34.133z"/><path d="M435.2,34.133H384c-4.719,0-8.533,3.823-8.533,8.533c0,4.71,3.814,8.533,8.533,8.533h51.2     c12.442,0,25.6,13.158,25.6,25.6v392.533c0,12.442-13.158,25.6-25.6,25.6H76.8c-12.442,0-25.6-13.158-25.6-25.6V76.8     c0-12.442,13.158-25.6,25.6-25.6H128c4.719,0,8.533-3.823,8.533-8.533c0-4.71-3.814-8.533-8.533-8.533H76.8     c-21.931,0-42.667,20.736-42.667,42.667v392.533C34.133,491.264,54.869,512,76.8,512h358.4c21.931,0,42.667-20.736,42.667-42.667     V76.8C477.867,54.869,457.131,34.133,435.2,34.133z"/><path d="M102.4,281.6c0,4.71,3.814,8.533,8.533,8.533h34.133c3.678,0,6.938-2.347,8.09-5.837l26.044-78.114l60.177,180.514     c1.135,3.413,4.284,5.743,7.885,5.837h0.205c3.507,0,6.673-2.15,7.953-5.444l52.753-135.654l16.99,33.98     c1.451,2.893,4.403,4.719,7.637,4.719h27.179C363.512,300.049,372.89,307.2,384,307.2c14.114,0,25.6-11.486,25.6-25.6     S398.114,256,384,256c-11.11,0-20.489,7.151-24.021,17.067h-21.905l-23.236-46.481c-1.51-3.021-4.881-4.779-8.03-4.71     c-3.371,0.162-6.34,2.287-7.56,5.436l-51.166,131.558L187.29,176.503c-1.152-3.49-4.412-5.837-8.09-5.837     s-6.929,2.347-8.09,5.837l-32.196,96.563h-27.981C106.214,273.067,102.4,276.89,102.4,281.6z M384,273.067     c4.71,0,8.533,3.831,8.533,8.533c0,4.702-3.823,8.533-8.533,8.533s-8.533-3.831-8.533-8.533     C375.467,276.898,379.29,273.067,384,273.067z"/><path d="M162.133,102.4h187.733c4.719,0,8.533-3.823,8.533-8.533v-51.2c0-4.71-3.814-8.533-8.533-8.533h-45.594     C297.148,13.995,277.854,0,256,0s-41.148,13.995-48.273,34.133h-45.594c-4.719,0-8.533,3.823-8.533,8.533v51.2     C153.6,98.577,157.414,102.4,162.133,102.4z M170.667,51.2h43.529c4.053,0,7.552-2.859,8.354-6.835     c3.217-15.821,17.28-27.298,33.451-27.298s30.234,11.477,33.451,27.298c0.802,3.977,4.301,6.835,8.354,6.835h43.529v34.133     H170.667V51.2z"/></g><g transform="matrix(0.07200894632946084 0.032279872770770754 -0.032279872770770754 0.07200894632946084 34.829357168975335 109.30206231034072)" id="L1_8"><path d="M455.492,381.09c-0.051-0.06-0.068-0.137-0.119-0.196c-0.06-0.051-0.137-0.068-0.196-0.12     c-13.892-13.824-33.015-22.374-54.11-22.374c-42.342,0-76.8,34.458-76.8,76.8c0,21.094,8.55,40.218,22.374,54.11     c0.051,0.06,0.068,0.137,0.12,0.196c0.06,0.051,0.137,0.068,0.196,0.119C360.849,503.45,379.972,512,401.067,512     c42.342,0,76.8-34.458,76.8-76.8C477.867,414.106,469.316,394.982,455.492,381.09z M341.333,435.2     c0-32.939,26.795-59.733,59.733-59.733c13.397,0,25.737,4.489,35.712,11.955l-83.49,83.49     C345.822,460.937,341.333,448.597,341.333,435.2z M401.067,494.933c-13.397,0-25.737-4.489-35.712-11.955l83.49-83.49     c7.467,9.975,11.955,22.315,11.955,35.712C460.8,468.139,434.005,494.933,401.067,494.933z"/><path d="M324.267,494.933H76.8c-14.114,0-25.6-11.486-25.6-25.6v-25.6h247.467c4.71,0,8.533-3.823,8.533-8.533     s-3.823-8.533-8.533-8.533H51.2V238.933h358.4v96.538c0,4.71,3.823,8.525,8.533,8.525s8.533-3.814,8.533-8.525V187.733     c0-21.675-15.974-42.035-39.97-50.765l-45.363-15.121V102.4h8.533c4.71,0,8.533-3.823,8.533-8.533V25.6     c0-14.114-11.486-25.6-25.6-25.6H128c-14.114,0-25.6,11.486-25.6,25.6v68.267c0,4.71,3.823,8.533,8.533,8.533h187.733     c4.71,0,8.533-3.823,8.533-8.533V59.733c0-4.71-3.823-8.533-8.533-8.533s-8.533,3.823-8.533,8.533v25.6H256v-25.6     c0-4.71-3.823-8.533-8.533-8.533s-8.533,3.823-8.533,8.533v25.6H204.8v-25.6c0-4.71-3.823-8.533-8.533-8.533     s-8.533,3.823-8.533,8.533v25.6H153.6v-25.6c0-4.71-3.823-8.533-8.533-8.533s-8.533,3.823-8.533,8.533v25.6h-17.067V25.6     c0-4.702,3.831-8.533,8.533-8.533h204.8c4.702,0,8.533,3.831,8.533,8.533v59.733H332.8c-4.71,0-8.533,3.823-8.533,8.533V128     c0,3.678,2.347,6.938,5.837,8.098l50.978,16.99c17.058,6.204,28.518,20.122,28.518,34.645v34.133H51.2v-34.133     c0-14.063,11.767-28.322,28.297-34.569l51.2-17.067c4.471-1.493,6.895-6.323,5.402-10.795c-1.493-4.471-6.315-6.903-10.795-5.402     l-51.516,17.178c-23.714,8.951-39.654,29.312-39.654,50.654v281.6C34.133,492.86,53.274,512,76.8,512h247.467     c4.71,0,8.533-3.823,8.533-8.533S328.977,494.933,324.267,494.933z"/><path d="M213.333,392.533h34.133c4.71,0,8.533-3.823,8.533-8.533v-25.6h25.6c4.71,0,8.533-3.823,8.533-8.533v-34.133     c0-4.71-3.823-8.533-8.533-8.533H256v-25.6c0-4.71-3.823-8.533-8.533-8.533h-34.133c-4.71,0-8.533,3.823-8.533,8.533v25.6h-25.6     c-4.71,0-8.533,3.823-8.533,8.533v34.133c0,4.71,3.823,8.533,8.533,8.533h25.6V384C204.8,388.71,208.623,392.533,213.333,392.533     z M187.733,341.333v-17.067h25.6c4.71,0,8.533-3.823,8.533-8.533v-25.6h17.067v25.6c0,4.71,3.823,8.533,8.533,8.533h25.6v17.067     h-25.6c-4.71,0-8.533,3.823-8.533,8.533v25.6h-17.067v-25.6c0-4.71-3.823-8.533-8.533-8.533H187.733z"/></g><g transform="matrix(-0.12284962087869644 0 0 0.12284962087869644 305.95061498880386 103.00000107973301)" id="L1_9"><path d="M20.818,258.278c-5.452-5.448-4.912-8.828-4.736-9.94c1-6.292,10.02-12.176,13.08-13.732    c3.952-1.976,5.556-6.784,3.58-10.736c-1.98-3.956-6.792-5.548-10.736-3.576c-1.96,0.98-19.208,10.016-21.712,25.456    c-0.932,5.74-0.092,14.536,9.212,23.84l80.78,80.78l11.316-11.312L20.818,258.278z"/><path d="M122.441,156.647c-9.3-9.3-18.092-10.152-23.84-9.216c-15.44,2.504-24.476,19.76-25.456,21.716    c-1.972,3.956-0.372,8.76,3.58,10.736c3.952,1.972,8.76,0.376,10.736-3.58c1.248-2.496,7.228-12.028,13.708-13.08    c1.12-0.18,4.504-0.72,9.964,4.736l80.784,80.784l11.304-11.316L122.441,156.647z"/><path d="M409.337,135.751l-43.304-43.304c-32.584-32.588-85.596-32.584-118.176,0c-15.812,15.812-24.76,36.576-25.192,58.48    c-0.444,22.252,7.996,43.188,23.752,58.948l85.996,85.992c11.472,11.472,18.048,26.54,18.504,42.436    c0.456,15.892-5.364,30.716-16.396,41.748c-22.616,22.612-60.372,21.656-84.16-2.128l-39.088-39.084    c-4.688-4.688-12.284-4.688-16.972,0s-4.688,12.284,0,16.968l39.088,39.088c16.964,16.968,39.124,25.5,61.008,25.5    c20.864,0,41.484-7.764,57.084-23.368c15.752-15.748,24.068-36.844,23.416-59.408c-0.632-22.044-9.7-42.896-25.524-58.716    l-85.988-85.996c-11.096-11.096-17.04-25.84-16.728-41.508c0.312-15.668,6.76-30.576,18.168-41.984    c23.22-23.22,61.012-23.22,84.24,0l43.304,43.304c4.688,4.688,12.28,4.688,16.968,0    C414.025,148.035,414.025,140.434,409.337,135.751z"/><path d="M208.661,237.21c-4.684-4.688-12.284-4.688-16.968,0c-4.688,4.684-4.688,12.284,0,16.968    c11.232,11.236,17.852,26.916,18.164,43.02c0.312,16.344-5.628,31.46-16.732,42.56c-11.16,11.156-26.48,17.184-42.9,16.988    c-16.272-0.196-32.016-6.724-43.196-17.904c-4.684-4.688-12.284-4.688-16.968,0c-4.688,4.684-4.688,12.284,0,16.968    c15.8,15.8,37.064,24.656,59.872,24.932c0.368,0.004,0.732,0.008,1.1,0.008c22.612,0,43.548-8.508,59.064-24.024    c15.76-15.756,24.196-37.064,23.756-59.988C233.418,274.158,224.473,253.018,208.661,237.21z"/><path d="M435.754,126.483c-29.032,0-52.648,23.62-52.648,52.652c0,29.028,23.616,52.644,52.648,52.644    c29.016,0,52.636-23.612,52.648-52.644C488.402,150.103,464.786,126.483,435.754,126.483z M435.754,207.778    c-15.796,0-28.648-12.852-28.648-28.644c0-15.8,12.852-28.652,28.648-28.652c15.796,0,28.648,12.852,28.648,28.648    C464.398,194.926,451.546,207.778,435.754,207.778z"/><circle cx="435" cy="179" r="11"/><ellipse cx="29px" cy="223px" rx="12px" ry="11px" transform="matrix(0.7071 -0.7071 0.7071 0.7071 -149.414 86.317)"/><ellipse cx="73px" cy="179px" rx="12px" ry="11px" transform="matrix(0.7071 -0.7071 0.7071 0.7071 -105.1387 104.6798)"/></g><g transform="matrix(0.04600683783693101 0.01314481043599635 -0.01314481043599635 0.04600683783693101 130.8230097721214 79.10554830487182)" id="L1_10"><path d="M270.192,103.7c-4.772-0.16-9.587-0.269-14.401-0.269c-6.281,0-11.946,0.183-17.311,0.551    c-9.77,0.67-17.384,8.912-17.331,18.766c0.155,27.87-0.688,58.089-2.663,95.085c-0.541,9.91,7.051,18.621,16.91,19.41    c10.488,0.849,20.82,1.135,30.77,1.315c9.942,0,18.012-7.779,18.372-17.699c1.203-32.761,2.325-65.519,3.336-98.302    C288.168,112.5,280.242,104.038,270.192,103.7z M258.833,212.399c-4.588-0.119-9.277-0.297-14-0.561    c1.582-31.232,2.331-57.719,2.336-82.263c4.486-0.155,9.501-0.175,14.478-0.086C260.783,157.125,259.848,184.762,258.833,212.399z    "/><path d="M353.746,316.642c-0.493-2.488-2.021-6.886-4.2-10.644c-6.459-11.12-16.412-19.448-29.579-24.765    c-2.097-0.849-4.291-1.28-6.494-1.28c-9.06,0-16.169,7.023-16.55,16.326c-1.143,28.467-2.325,56.919-3.529,85.381    c-0.197,4.834,1.463,9.349,4.688,12.715c3.158,3.291,7.449,5.099,12.065,5.099c1.452,0,2.914-0.188,4.367-0.549    c14.02-3.564,24.699-9.186,31.727-16.706c4.921-5.261,9.78-12.075,11.929-26.192c1.452-9.506-1.56-28.061-4.164-38.191    C353.913,317.455,353.827,317.069,353.746,316.642z M332.473,352.097c-1.233,8.124-3.255,10.277-5.21,12.369    c-1.701,1.818-4.194,3.534-7.332,5.078c0.797-18.869,1.579-37.729,2.346-56.599c1.889,1.843,3.488,3.89,4.789,6.129    c0.559,0.96,1.106,2.427,1.168,2.59c0.172,0.868,0.37,1.747,0.599,2.641C331.453,334.497,333.057,348.333,332.473,352.097z"/><path d="M182.082,118.454c-34.949,18.588-39.804,45.946-37.739,65.491l0.041,0.609c0.079,2.328,0.5,6.911,2.48,11.377    c5.756,12.972,19.952,21.231,33.07,27.591c2.44,1.184,4.992,1.788,7.586,1.788c8.732,0,15.658-6.802,16.115-15.828    c1.473-29.468,2.193-53.804,2.272-76.579c0.015-4.619-1.663-8.856-4.733-11.933C196.331,116.098,188.513,115.031,182.082,118.454z     M178.385,192.94c-4.171-2.798-6.759-5.314-7.736-7.522c-0.109-0.287-0.251-1.077-0.271-1.707    c-0.025-0.744-0.079-1.488-0.16-2.372c-1.27-11.997,1.703-21.51,9.478-29.457C179.457,164.633,179.025,178.13,178.385,192.94z"/><path d="M264.571,273.764c-11.791-0.762-21.36-1.585-30.127-2.59c-10.491-1.147-19.446,6.683-19.987,16.899    c-1.107,21.165-2.049,42.34-2.981,63.516l-1.211,27.086c-0.432,9.455,6.226,17.914,15.476,19.682    c10.988,2.103,22.048,3.539,32.88,4.256c0.284,0.02,0.919,0.04,1.203,0.04c9.75,0,17.718-7.652,18.144-17.438    c1.3-30.777,2.58-61.556,3.809-92.333C282.171,283,274.458,274.424,264.571,273.764z M252.333,376.003    c-5.253-0.538-10.537-1.244-15.835-2.133l0.952-21.129c0.808-18.281,1.623-36.557,2.539-54.837c4.819,0.462,9.93,0.894,15.511,1.3    C254.468,324.813,253.41,350.411,252.333,376.003z"/><path d="M415.691,308.269c-0.223-1.523-0.432-2.931-0.614-3.956c-0.375-2.148-0.959-4.28-1.731-6.357    c-15.106-40.218-46.026-68.269-87.402-79.488c1.011-27.746,1.971-55.492,2.844-83.241c3.524,0.807,7.384,1.742,10.481,2.499    c7.221,1.752,11.42,2.76,13.888,3.092c2.818,0.386,5.643,0.576,8.395,0.576c22.104,0,38.552-11.829,44-31.646    c3.296-11.984,0.798-26.321-6.53-37.412c-6.316-9.566-15.503-15.614-25.887-17.029c-4.565-0.625-13.046-2.435-21.241-4.182    c-7.521-1.607-14.752-3.146-20.611-4.174c0.116-4.56,0.238-9.122,0.34-13.688c0.213-9.209-2.834-17.311-8.811-23.425    C316.702,3.587,307.825,0,298.457,0c-19.027,0-33.703,14.045-34.129,32.662l-0.234,9.14c-6.888-0.068-13.794,0.041-20.215,0.323    c-0.028-0.437-0.058-0.828-0.083-1.15c-1.866-20.784-19.246-31.656-35.447-31.656c-9.532,0-18.367,3.687-24.243,10.11    c-4.009,4.388-8.563,12.093-7.51,23.856c0.213,2.382,0.381,6.01,0.548,9.641c-59.798,19.565-97.893,68.959-95.268,124.261    c0.079,1.6,0.183,3.229,0.267,4.534c0.056,0.848,0.104,1.528,0.114,1.851c0.01,0.696,0.041,1.404,0.099,2.158    c4.329,58.3,50.812,86.105,90.979,99.267c-1.196,22.638-2.224,45.539-3.212,67.78c-7.541-3.585-15.272-7.479-19.746-10.004    c-6.987-3.93-14.277-5.926-21.683-5.926c-19.446,0-37.402,14.63-42.69,34.789c-5.047,19.267,2.747,37.39,20.347,47.297    c16.39,9.227,40.482,20.261,59.06,27.127c-0.383,6.225-0.79,12.461-1.231,18.691c-0.65,9.298,2.08,17.509,7.904,23.755    c5.944,6.378,14.792,10.034,24.273,10.034c16.311,0,33.596-10.974,35.073-31.977c0.104-1.473,0.201-2.955,0.3-4.438    c5.71,0.762,11.451,1.371,17.207,1.828c-0.031,2.082-0.056,3.803-0.094,4.504c-0.388,9.252,2.524,17.402,8.435,23.572    c6.045,6.307,14.912,9.922,24.326,9.922c16.468,0,33.616-11.126,34.536-32.372c0.051-1.214,0.106-4.443,0.152-7.962    c35.479-5.891,64.281-22.206,83.415-47.297c19.429-25.466,25.086-59.438,16.804-100.949    C416.209,311.889,415.94,309.99,415.691,308.269z M379.029,398.56c-19.495,25.553-48.424,34.652-69.244,37.775    c-1.249,0.188-2.498,0.35-3.772,0.513c-8.77,1.076-15.493,9.014-15.635,18.464l-0.071,4.52c-0.056,3.706-0.106,7.353-0.157,8.627    c-0.3,6.962-6.617,7.5-8.557,7.5c-2.29,0-4.418-0.731-5.55-1.909c-0.33-0.346-1.361-1.422-1.229-4.448    c0.056-1.193,0.106-5.281,0.163-9.303l0.04-3.118c0.132-9.933-7.53-18.139-17.448-18.697c-10.245-0.573-20.541-1.696-30.628-3.341    c-0.988-0.157-1.97-0.233-2.927-0.233c-9.468,0-17.06,7.149-17.659,16.63c-0.279,4.413-0.556,8.815-0.869,13.213    c-0.521,7.419-7.701,7.795-9.135,7.795c-2.232,0-4.238-0.676-5.259-1.762c-0.784-0.849-1.117-2.26-0.978-4.21    c0.546-7.83,1.051-15.671,1.523-23.501c0.536-8.704-5.09-17.123-13.373-20.018c-17.476-6.124-42.909-17.631-59.159-26.776    c-9.138-5.134-9.366-12.654-7.952-18.047c1.955-7.46,8.768-15.386,17.54-15.386c2.882,0,5.888,0.868,8.93,2.579    c7.866,4.438,24.034,12.314,34.588,16.874c2.247,0.97,4.575,1.452,6.932,1.452c8.896,0,15.922-6.896,16.333-16.057l0.531-11.811    c1.086-24.39,2.214-49.612,3.554-74.362c0.5-8.917-5.37-17.296-13.977-19.926c-49.241-14.982-74.522-40.431-77.299-77.762    l-0.031-0.785c-0.01-0.477-0.073-1.582-0.162-2.996c-0.079-1.191-0.17-2.677-0.244-4.124    c-2.445-51.43,39.113-87.054,81.388-99.551c8.589-2.542,14.522-10.852,14.102-19.764l-0.15-3.379    c-0.208-4.52-0.426-9.278-0.69-12.279c-0.172-1.881,0.104-3.23,0.8-4.004c0.919-1.003,2.907-1.652,5.055-1.652    c0.904,0,8.854,0.223,9.552,7.982c0.114,1.305,0.198,3.862,0.29,6.391l0.053,1.424c0.337,9.78,8.305,17.44,18.131,17.44    c0.297,0,0.957-0.021,1.244-0.043c7.15-0.482,14.698-0.726,22.445-0.726c3.682,0,7.368,0.051,11.558,0.16    c9.982,0,18.006-7.81,18.266-17.773l0.432-16.899c0.152-6.561,5.742-7.264,8.14-7.264c2.376,0,4.534,0.754,5.764,2.013    c0.36,0.374,1.482,1.519,1.411,4.649c-0.157,6.67-0.33,13.342-0.513,20.017c-0.254,9.643,7.059,18.04,16.65,19.121    c5.165,0.586,15.534,2.803,24.685,4.758c9.069,1.935,17.641,3.765,23.166,4.512c3.636,0.495,6.189,3.318,7.697,5.596    c3.164,4.789,4.454,11.451,3.154,16.193c-2.285,8.323-8.658,12.548-18.937,12.548c-1.584,0-3.229-0.117-4.874-0.34    c-1.407-0.208-7.104-1.59-11.273-2.6c-10.304-2.501-17.94-4.311-22.455-4.814c-10.598-1.155-19.524,6.833-19.85,17.227    c-1.006,32.702-2.128,65.394-3.336,98.083c-0.336,9.069,6.129,17.458,15.025,19.51c35.276,8.176,61.637,31.128,74.209,64.617    c0.214,0.563,0.366,1.152,0.482,1.757c0.147,0.833,0.305,1.95,0.482,3.159c0.32,2.168,0.671,4.56,1.041,6.448    C397.761,352.34,393.74,379.285,379.029,398.56z"/></g><g transform="matrix(0.03363571128842606 -0.03363571128842606 0.03363571128842606 0.03363571128842606 53.22228535970632 61.99423648997054)"><path d="M270.192,103.7c-4.772-0.16-9.587-0.269-14.401-0.269c-6.281,0-11.946,0.183-17.311,0.551    c-9.77,0.67-17.384,8.912-17.331,18.766c0.155,27.87-0.688,58.089-2.663,95.085c-0.541,9.91,7.051,18.621,16.91,19.41    c10.488,0.849,20.82,1.135,30.77,1.315c9.942,0,18.012-7.779,18.372-17.699c1.203-32.761,2.325-65.519,3.336-98.302    C288.168,112.5,280.242,104.038,270.192,103.7z M258.833,212.399c-4.588-0.119-9.277-0.297-14-0.561    c1.582-31.232,2.331-57.719,2.336-82.263c4.486-0.155,9.501-0.175,14.478-0.086C260.783,157.125,259.848,184.762,258.833,212.399z    "/><path d="M353.746,316.642c-0.493-2.488-2.021-6.886-4.2-10.644c-6.459-11.12-16.412-19.448-29.579-24.765    c-2.097-0.849-4.291-1.28-6.494-1.28c-9.06,0-16.169,7.023-16.55,16.326c-1.143,28.467-2.325,56.919-3.529,85.381    c-0.197,4.834,1.463,9.349,4.688,12.715c3.158,3.291,7.449,5.099,12.065,5.099c1.452,0,2.914-0.188,4.367-0.549    c14.02-3.564,24.699-9.186,31.727-16.706c4.921-5.261,9.78-12.075,11.929-26.192c1.452-9.506-1.56-28.061-4.164-38.191    C353.913,317.455,353.827,317.069,353.746,316.642z M332.473,352.097c-1.233,8.124-3.255,10.277-5.21,12.369    c-1.701,1.818-4.194,3.534-7.332,5.078c0.797-18.869,1.579-37.729,2.346-56.599c1.889,1.843,3.488,3.89,4.789,6.129    c0.559,0.96,1.106,2.427,1.168,2.59c0.172,0.868,0.37,1.747,0.599,2.641C331.453,334.497,333.057,348.333,332.473,352.097z"/><path d="M182.082,118.454c-34.949,18.588-39.804,45.946-37.739,65.491l0.041,0.609c0.079,2.328,0.5,6.911,2.48,11.377    c5.756,12.972,19.952,21.231,33.07,27.591c2.44,1.184,4.992,1.788,7.586,1.788c8.732,0,15.658-6.802,16.115-15.828    c1.473-29.468,2.193-53.804,2.272-76.579c0.015-4.619-1.663-8.856-4.733-11.933C196.331,116.098,188.513,115.031,182.082,118.454z     M178.385,192.94c-4.171-2.798-6.759-5.314-7.736-7.522c-0.109-0.287-0.251-1.077-0.271-1.707    c-0.025-0.744-0.079-1.488-0.16-2.372c-1.27-11.997,1.703-21.51,9.478-29.457C179.457,164.633,179.025,178.13,178.385,192.94z"/><path d="M264.571,273.764c-11.791-0.762-21.36-1.585-30.127-2.59c-10.491-1.147-19.446,6.683-19.987,16.899    c-1.107,21.165-2.049,42.34-2.981,63.516l-1.211,27.086c-0.432,9.455,6.226,17.914,15.476,19.682    c10.988,2.103,22.048,3.539,32.88,4.256c0.284,0.02,0.919,0.04,1.203,0.04c9.75,0,17.718-7.652,18.144-17.438    c1.3-30.777,2.58-61.556,3.809-92.333C282.171,283,274.458,274.424,264.571,273.764z M252.333,376.003    c-5.253-0.538-10.537-1.244-15.835-2.133l0.952-21.129c0.808-18.281,1.623-36.557,2.539-54.837c4.819,0.462,9.93,0.894,15.511,1.3    C254.468,324.813,253.41,350.411,252.333,376.003z"/><path d="M415.691,308.269c-0.223-1.523-0.432-2.931-0.614-3.956c-0.375-2.148-0.959-4.28-1.731-6.357    c-15.106-40.218-46.026-68.269-87.402-79.488c1.011-27.746,1.971-55.492,2.844-83.241c3.524,0.807,7.384,1.742,10.481,2.499    c7.221,1.752,11.42,2.76,13.888,3.092c2.818,0.386,5.643,0.576,8.395,0.576c22.104,0,38.552-11.829,44-31.646    c3.296-11.984,0.798-26.321-6.53-37.412c-6.316-9.566-15.503-15.614-25.887-17.029c-4.565-0.625-13.046-2.435-21.241-4.182    c-7.521-1.607-14.752-3.146-20.611-4.174c0.116-4.56,0.238-9.122,0.34-13.688c0.213-9.209-2.834-17.311-8.811-23.425    C316.702,3.587,307.825,0,298.457,0c-19.027,0-33.703,14.045-34.129,32.662l-0.234,9.14c-6.888-0.068-13.794,0.041-20.215,0.323    c-0.028-0.437-0.058-0.828-0.083-1.15c-1.866-20.784-19.246-31.656-35.447-31.656c-9.532,0-18.367,3.687-24.243,10.11    c-4.009,4.388-8.563,12.093-7.51,23.856c0.213,2.382,0.381,6.01,0.548,9.641c-59.798,19.565-97.893,68.959-95.268,124.261    c0.079,1.6,0.183,3.229,0.267,4.534c0.056,0.848,0.104,1.528,0.114,1.851c0.01,0.696,0.041,1.404,0.099,2.158    c4.329,58.3,50.812,86.105,90.979,99.267c-1.196,22.638-2.224,45.539-3.212,67.78c-7.541-3.585-15.272-7.479-19.746-10.004    c-6.987-3.93-14.277-5.926-21.683-5.926c-19.446,0-37.402,14.63-42.69,34.789c-5.047,19.267,2.747,37.39,20.347,47.297    c16.39,9.227,40.482,20.261,59.06,27.127c-0.383,6.225-0.79,12.461-1.231,18.691c-0.65,9.298,2.08,17.509,7.904,23.755    c5.944,6.378,14.792,10.034,24.273,10.034c16.311,0,33.596-10.974,35.073-31.977c0.104-1.473,0.201-2.955,0.3-4.438    c5.71,0.762,11.451,1.371,17.207,1.828c-0.031,2.082-0.056,3.803-0.094,4.504c-0.388,9.252,2.524,17.402,8.435,23.572    c6.045,6.307,14.912,9.922,24.326,9.922c16.468,0,33.616-11.126,34.536-32.372c0.051-1.214,0.106-4.443,0.152-7.962    c35.479-5.891,64.281-22.206,83.415-47.297c19.429-25.466,25.086-59.438,16.804-100.949    C416.209,311.889,415.94,309.99,415.691,308.269z M379.029,398.56c-19.495,25.553-48.424,34.652-69.244,37.775    c-1.249,0.188-2.498,0.35-3.772,0.513c-8.77,1.076-15.493,9.014-15.635,18.464l-0.071,4.52c-0.056,3.706-0.106,7.353-0.157,8.627    c-0.3,6.962-6.617,7.5-8.557,7.5c-2.29,0-4.418-0.731-5.55-1.909c-0.33-0.346-1.361-1.422-1.229-4.448    c0.056-1.193,0.106-5.281,0.163-9.303l0.04-3.118c0.132-9.933-7.53-18.139-17.448-18.697c-10.245-0.573-20.541-1.696-30.628-3.341    c-0.988-0.157-1.97-0.233-2.927-0.233c-9.468,0-17.06,7.149-17.659,16.63c-0.279,4.413-0.556,8.815-0.869,13.213    c-0.521,7.419-7.701,7.795-9.135,7.795c-2.232,0-4.238-0.676-5.259-1.762c-0.784-0.849-1.117-2.26-0.978-4.21    c0.546-7.83,1.051-15.671,1.523-23.501c0.536-8.704-5.09-17.123-13.373-20.018c-17.476-6.124-42.909-17.631-59.159-26.776    c-9.138-5.134-9.366-12.654-7.952-18.047c1.955-7.46,8.768-15.386,17.54-15.386c2.882,0,5.888,0.868,8.93,2.579    c7.866,4.438,24.034,12.314,34.588,16.874c2.247,0.97,4.575,1.452,6.932,1.452c8.896,0,15.922-6.896,16.333-16.057l0.531-11.811    c1.086-24.39,2.214-49.612,3.554-74.362c0.5-8.917-5.37-17.296-13.977-19.926c-49.241-14.982-74.522-40.431-77.299-77.762    l-0.031-0.785c-0.01-0.477-0.073-1.582-0.162-2.996c-0.079-1.191-0.17-2.677-0.244-4.124    c-2.445-51.43,39.113-87.054,81.388-99.551c8.589-2.542,14.522-10.852,14.102-19.764l-0.15-3.379    c-0.208-4.52-0.426-9.278-0.69-12.279c-0.172-1.881,0.104-3.23,0.8-4.004c0.919-1.003,2.907-1.652,5.055-1.652    c0.904,0,8.854,0.223,9.552,7.982c0.114,1.305,0.198,3.862,0.29,6.391l0.053,1.424c0.337,9.78,8.305,17.44,18.131,17.44    c0.297,0,0.957-0.021,1.244-0.043c7.15-0.482,14.698-0.726,22.445-0.726c3.682,0,7.368,0.051,11.558,0.16    c9.982,0,18.006-7.81,18.266-17.773l0.432-16.899c0.152-6.561,5.742-7.264,8.14-7.264c2.376,0,4.534,0.754,5.764,2.013    c0.36,0.374,1.482,1.519,1.411,4.649c-0.157,6.67-0.33,13.342-0.513,20.017c-0.254,9.643,7.059,18.04,16.65,19.121    c5.165,0.586,15.534,2.803,24.685,4.758c9.069,1.935,17.641,3.765,23.166,4.512c3.636,0.495,6.189,3.318,7.697,5.596    c3.164,4.789,4.454,11.451,3.154,16.193c-2.285,8.323-8.658,12.548-18.937,12.548c-1.584,0-3.229-0.117-4.874-0.34    c-1.407-0.208-7.104-1.59-11.273-2.6c-10.304-2.501-17.94-4.311-22.455-4.814c-10.598-1.155-19.524,6.833-19.85,17.227    c-1.006,32.702-2.128,65.394-3.336,98.083c-0.336,9.069,6.129,17.458,15.025,19.51c35.276,8.176,61.637,31.128,74.209,64.617    c0.214,0.563,0.366,1.152,0.482,1.757c0.147,0.833,0.305,1.95,0.482,3.159c0.32,2.168,0.671,4.56,1.041,6.448    C397.761,352.34,393.74,379.285,379.029,398.56z"/></g><g transform="matrix(0.7113027718123589 -0.255339443979846 0.255339443979846 0.7113027718123589 133.00073352623386 31.321100165024614)" id="L1_12"><path d="M20,49c-2.206,0-4,1.794-4,4s1.794,4,4,4s4-1.794,4-4S22.206,49,20,49z M20,55c-1.103,0-2-0.897-2-2s0.897-2,2-2   s2,0.897,2,2S21.103,55,20,55z"/><path d="M17,5h4c0.552,0,1-0.447,1-1s-0.448-1-1-1h-4c-0.552,0-1,0.447-1,1S16.448,5,17,5z"/><path d="M24,5h1c0.552,0,1-0.447,1-1s-0.448-1-1-1h-1c-0.552,0-1,0.447-1,1S23.448,5,24,5z"/><path d="M56,12H38V4.405C38,1.977,36.024,0,33.595,0H8.405C5.976,0,4,1.977,4,4.405v51.189C4,58.023,5.976,60,8.405,60h25.189   C36.024,60,38,58.023,38,55.595V33h18V12z M8.405,2h25.189C34.921,2,36,3.079,36,4.405V6H6V4.405C6,3.079,7.079,2,8.405,2z    M33.595,58H8.405C7.079,58,6,56.921,6,55.595V48h30v7.595C36,56.921,34.921,58,33.595,58z M36,46H6V8h30v4H18v21h4v7l9.333-7H36   V46z M54,31H38h-7.333L24,36v-5h-4V14h18h16V31z"/><path d="M25,21h10c0.552,0,1-0.447,1-1s-0.448-1-1-1H25c-0.552,0-1,0.447-1,1S24.448,21,25,21z"/><path d="M24,25c0,0.553,0.448,1,1,1h24c0.552,0,1-0.447,1-1s-0.448-1-1-1H25C24.448,24,24,24.447,24,25z"/></g><g transform="matrix(0.09207024659929397 0.16112293560060825 -0.16112293560060825 0.09207024659929397 220.17719688571438 129.64700803853646)" id="L1_13"><circle cx="113" cy="106" r="11"/><path d="M101.508,132.035c-5.096-0.313-9.479,3.564-9.791,8.658c-0.312,5.096,3.567,9.479,8.663,9.791   c5.092,0.311,9.476-3.566,9.787-8.662C110.479,136.729,106.601,132.346,101.508,132.035z"/><path d="M102.471,80.172c7.64,0.467,14.214-5.348,14.682-12.99c0.467-7.643-5.35-14.215-12.989-14.682   c-7.643-0.469-14.213,5.348-14.68,12.988C89.016,73.133,94.83,79.705,102.471,80.172z"/><path d="M182.604,74.911c0-4.142-3.357-7.5-7.5-7.5h-17.843c-2.237-6.52-5.203-12.823-8.926-18.785   c-0.757-1.212-1.569-2.373-2.407-3.509l11.68-11.68c2.929-2.929,2.929-7.678-0.001-10.606c-2.928-2.93-7.677-2.929-10.606,0   l-11.572,11.573c-6.522-5.015-14.122-8.483-22.297-10.083V7.5c0-4.142-3.358-7.5-7.5-7.5c-4.143,0-7.5,3.358-7.5,7.5v16.001   c-8.476,0.715-16.681,3.431-23.961,7.976c-0.299,0.186-0.585,0.387-0.879,0.579L61.353,20.118c-2.93-2.929-7.678-2.929-10.607,0   c-2.929,2.929-2.929,7.678,0,10.606l11.196,11.197c-5.67,6.544-9.699,14.412-11.706,23.088c-0.185,0.799-0.346,1.601-0.494,2.402   H32.989c-4.143,0-7.5,3.358-7.5,7.5c0,4.142,3.357,7.5,7.5,7.5h16.108c0.795,8.155,3.457,16.08,7.925,23.232   c2.802,4.486,3.826,9.811,3.04,14.922H42.396c-4.143,0-7.5,3.358-7.5,7.5s3.357,7.5,7.5,7.5h11.959   c-0.93,2.736-1.701,5.759-2.098,9.114c-0.939,7.912,0.461,15.481,3.967,22.115l-12.229,12.23   c-2.929,2.929-2.929,7.678,0.001,10.606c1.464,1.465,3.384,2.197,5.303,2.197c1.919,0,3.839-0.732,5.304-2.197l11.178-11.178   c7.114,5.872,16.047,9.075,25.523,9.075c2.23,0,4.474-0.2,6.721-0.554v13.621c0,4.142,3.358,7.5,7.5,7.5c4.143,0,7.5-3.358,7.5-7.5   V182.04c7.068-3.538,13.971-8.731,20.423-15.445l10.892,10.892c1.465,1.465,3.384,2.197,5.304,2.197   c1.919,0,3.839-0.732,5.303-2.197c2.93-2.929,2.93-7.677,0.001-10.606l-11.896-11.896c4.335-6.088,8.042-12.638,10.994-19.42   h18.303c4.143,0,7.5-3.358,7.5-7.5s-3.357-7.5-7.5-7.5h-13.119c0.258-1,0.499-2.001,0.722-3.003   c2.617-11.764,2.939-23.658,1.08-35.151h14.074C179.247,82.411,182.604,79.053,182.604,74.911z M91.303,172.526L91.303,172.526   c-6.725,0-12.99-2.537-17.645-7.145c-5.052-4.999-7.362-11.724-6.506-18.938c0.522-4.41,2.15-8.304,3.675-11.535l0.14-0.298   l0.161-0.306c0.534-1.022,0.998-2.069,1.43-3.126c0.094-0.206,0.178-0.417,0.254-0.632c4.15-10.741,3.09-22.991-3.067-32.85   c-5.494-8.794-7.232-19.202-4.896-29.307c2.338-10.106,8.47-18.696,17.266-24.189c6.18-3.858,13.277-5.897,20.527-5.897   c13.502,0,25.827,6.829,32.971,18.268c10.716,17.161,14.159,37.665,9.694,57.734c-3.098,13.926-10.198,27.772-19.994,38.988   C114.48,165.696,102.402,172.526,91.303,172.526z"/></g><g transform="matrix(0.23397367263485272 0.06932553585116599 -0.06932553585116599 0.23397367263485272 265.97899240132836 4.365539304553266)" id="L1_14"><path d="M174.793,83.647h-16.439c-1.199-7.543-4.179-14.497-8.488-20.427l11.645-11.645c2.929-2.929,2.929-7.678,0-10.606   c-2.929-2.929-7.678-2.929-10.607,0l-11.645,11.645c-5.93-4.31-12.884-7.289-20.427-8.488V27.685c0-4.142-3.358-7.5-7.5-7.5   c-4.142,0-7.5,3.358-7.5,7.5V43.53H78.463V27.685c0-4.142-3.358-7.5-7.5-7.5c-4.142,0-7.5,3.358-7.5,7.5v16.441   c-7.543,1.199-14.497,4.179-20.428,8.488L31.392,40.969c-2.929-2.928-7.677-2.929-10.607,0c-2.929,2.929-2.929,7.678,0,10.607   l11.644,11.645c-4.31,5.93-7.29,12.884-8.489,20.427H7.5c-4.142,0-7.5,3.358-7.5,7.5s3.358,7.5,7.5,7.5h16.44   c1.199,7.543,4.179,14.497,8.489,20.427l-11.643,11.643c-2.929,2.929-2.929,7.678,0,10.606c1.464,1.464,3.384,2.197,5.303,2.197   s3.839-0.732,5.303-2.197l11.644-11.643c5.93,4.31,12.885,7.29,20.428,8.489v16.439c0,4.142,3.358,7.5,7.5,7.5   c4.142,0,7.5-3.358,7.5-7.5v-15.844h25.369v15.844c0,4.142,3.358,7.5,7.5,7.5c4.142,0,7.5-3.358,7.5-7.5v-16.439   c7.543-1.199,14.497-4.179,20.427-8.488l11.645,11.644c1.465,1.464,3.384,2.196,5.303,2.196c1.919,0,3.839-0.732,5.304-2.197   c2.929-2.929,2.928-7.678-0.001-10.607l-11.645-11.643c4.309-5.93,7.289-12.883,8.488-20.426h16.439c4.142,0,7.5-3.358,7.5-7.5   S178.935,83.647,174.793,83.647z M111.332,123.765H70.963c-17.986,0-32.619-14.632-32.619-32.617   c0-17.985,14.633-32.617,32.619-32.617h40.369c17.985,0,32.617,14.632,32.617,32.617   C143.949,109.133,129.317,123.765,111.332,123.765z"/><circle cx="116" cy="91" r="8"/><circle cx="94" cy="104" r="8"/><circle cx="65" cy="91" r="8"/><circle cx="87" cy="78" r="8"/></g><g transform="matrix(0.08733384113309751 -0.06382088065876812 0.06382088065876812 0.08733384113309751 113.30632706187761 140.979647511957)" id="L1_16"><rect x="288px" y="104px" width="56px" height="15px" fill="#1d1d1b"/><path d="M416.104,216.143c-16.854,0-32.704,4.377-46.481,12.043l-34.934-52.402h29.381   c19.771,0,35.857-16.086,35.857-35.857c0-19.772-16.086-35.858-35.857-35.858h-12.007v15.678h12.007   c11.127,0,20.179,9.053,20.179,20.18s-9.052,20.179-20.179,20.179H304.03v15.678h11.816l16.231,24.348H191.792v-32.352h32.021   v-7.839c0-17.565-14.29-31.855-31.855-31.855h-71.881v7.839c0,17.565,14.29,31.855,31.855,31.855h24.182v37.162l-25.69,28.259   c-15.492-10.748-34.286-17.058-54.528-17.058C43.018,216.143,0,259.162,0,312.04s43.018,95.895,95.895,95.895   c41.152,0,76.33-26.058,89.909-62.539l54.306,5.717c0.016,0.002,0.03,0.005,0.045,0.008v17.121h-8.171v15.678h32.021v-15.678h-8.17   v-17.121c17.442-3.493,30.8-18.404,31.933-36.578l60.292-90.437l8.53,12.796c-22.15,17.581-36.383,44.728-36.383,75.14   c0,52.877,43.019,95.895,95.896,95.895s95.896-43.018,95.896-95.895S468.98,216.143,416.104,216.143z M151.932,152.103   c-6.077,0-11.383-3.37-14.147-8.338h54.174c6.077,0,11.383,3.37,14.147,8.338H151.932z M151.997,254.777   c7.415,7.264,13.43,15.948,17.596,25.613l-45.206,4.758L151.997,254.777z M95.895,392.257c-44.231,0-80.217-35.986-80.217-80.217   c0-44.232,35.986-80.218,80.217-80.218c16.182,0,31.25,4.832,43.867,13.107l-38.805,42.686l-5.605,0.589   c-12.9,0.291-23.305,10.867-23.305,23.836s10.405,23.543,23.305,23.836l74.242,7.815   C157.29,372.225,128.892,392.257,95.895,392.257z M104.067,312.04c0,4.506-3.666,8.17-8.172,8.17s-8.17-3.666-8.17-8.17   c0-4.507,3.666-8.171,8.17-8.171C100.402,303.868,104.067,307.534,104.067,312.04z M174.424,328.433l-57.063-6.006   c1.526-3.142,2.384-6.665,2.384-10.387s-0.858-7.246-2.384-10.387l57.063-6.007c1.105,5.295,1.69,10.777,1.69,16.395   C176.114,317.657,175.528,323.139,174.424,328.433z M213.851,332.582l-23.768-2.502c1.117-5.846,1.71-11.875,1.71-18.041   c0-6.167-0.592-12.197-1.71-18.042l23.768-2.502c-3.626,6.003-5.716,13.034-5.716,20.544   C208.135,319.547,210.225,326.58,213.851,332.582z M255.834,334.909V312.04h-15.678v22.869   c-9.497-3.264-16.343-12.279-16.343-22.869c0-11.487,8.054-21.123,18.81-23.573l5.705-0.601   c13.18,0.181,23.848,10.952,23.848,24.174C272.175,322.63,265.33,331.645,255.834,334.909z M283.129,293.237   c-6.729-12.522-19.952-21.057-35.134-21.057l-62.191,6.503c-5.04-13.543-13.058-25.645-23.252-35.515l24.869-27.356h147.325   L283.129,293.237z M416.104,392.257c-44.232,0-80.218-35.986-80.218-80.217c0-24.978,11.479-47.321,29.434-62.044l44.262,66.393   l13.044-8.696l-44.271-66.408c11.258-6.031,24.109-9.462,37.749-9.462c44.232,0,80.218,35.986,80.218,80.218   C496.322,356.271,460.336,392.257,416.104,392.257z" fill="#1d1d1b"/></g><g transform="matrix(0.07797249757568403 -0.016132240914938707 0.016132240914938707 0.07797249757568403 294.4330577741294 109.4766117389641)"><path d="M270.192,103.7c-4.772-0.16-9.587-0.269-14.401-0.269c-6.281,0-11.946,0.183-17.311,0.551    c-9.77,0.67-17.384,8.912-17.331,18.766c0.155,27.87-0.688,58.089-2.663,95.085c-0.541,9.91,7.051,18.621,16.91,19.41    c10.488,0.849,20.82,1.135,30.77,1.315c9.942,0,18.012-7.779,18.372-17.699c1.203-32.761,2.325-65.519,3.336-98.302    C288.168,112.5,280.242,104.038,270.192,103.7z M258.833,212.399c-4.588-0.119-9.277-0.297-14-0.561    c1.582-31.232,2.331-57.719,2.336-82.263c4.486-0.155,9.501-0.175,14.478-0.086C260.783,157.125,259.848,184.762,258.833,212.399z    "/><path d="M353.746,316.642c-0.493-2.488-2.021-6.886-4.2-10.644c-6.459-11.12-16.412-19.448-29.579-24.765    c-2.097-0.849-4.291-1.28-6.494-1.28c-9.06,0-16.169,7.023-16.55,16.326c-1.143,28.467-2.325,56.919-3.529,85.381    c-0.197,4.834,1.463,9.349,4.688,12.715c3.158,3.291,7.449,5.099,12.065,5.099c1.452,0,2.914-0.188,4.367-0.549    c14.02-3.564,24.699-9.186,31.727-16.706c4.921-5.261,9.78-12.075,11.929-26.192c1.452-9.506-1.56-28.061-4.164-38.191    C353.913,317.455,353.827,317.069,353.746,316.642z M332.473,352.097c-1.233,8.124-3.255,10.277-5.21,12.369    c-1.701,1.818-4.194,3.534-7.332,5.078c0.797-18.869,1.579-37.729,2.346-56.599c1.889,1.843,3.488,3.89,4.789,6.129    c0.559,0.96,1.106,2.427,1.168,2.59c0.172,0.868,0.37,1.747,0.599,2.641C331.453,334.497,333.057,348.333,332.473,352.097z"/><path d="M182.082,118.454c-34.949,18.588-39.804,45.946-37.739,65.491l0.041,0.609c0.079,2.328,0.5,6.911,2.48,11.377    c5.756,12.972,19.952,21.231,33.07,27.591c2.44,1.184,4.992,1.788,7.586,1.788c8.732,0,15.658-6.802,16.115-15.828    c1.473-29.468,2.193-53.804,2.272-76.579c0.015-4.619-1.663-8.856-4.733-11.933C196.331,116.098,188.513,115.031,182.082,118.454z     M178.385,192.94c-4.171-2.798-6.759-5.314-7.736-7.522c-0.109-0.287-0.251-1.077-0.271-1.707    c-0.025-0.744-0.079-1.488-0.16-2.372c-1.27-11.997,1.703-21.51,9.478-29.457C179.457,164.633,179.025,178.13,178.385,192.94z"/><path d="M264.571,273.764c-11.791-0.762-21.36-1.585-30.127-2.59c-10.491-1.147-19.446,6.683-19.987,16.899    c-1.107,21.165-2.049,42.34-2.981,63.516l-1.211,27.086c-0.432,9.455,6.226,17.914,15.476,19.682    c10.988,2.103,22.048,3.539,32.88,4.256c0.284,0.02,0.919,0.04,1.203,0.04c9.75,0,17.718-7.652,18.144-17.438    c1.3-30.777,2.58-61.556,3.809-92.333C282.171,283,274.458,274.424,264.571,273.764z M252.333,376.003    c-5.253-0.538-10.537-1.244-15.835-2.133l0.952-21.129c0.808-18.281,1.623-36.557,2.539-54.837c4.819,0.462,9.93,0.894,15.511,1.3    C254.468,324.813,253.41,350.411,252.333,376.003z"/><path d="M415.691,308.269c-0.223-1.523-0.432-2.931-0.614-3.956c-0.375-2.148-0.959-4.28-1.731-6.357    c-15.106-40.218-46.026-68.269-87.402-79.488c1.011-27.746,1.971-55.492,2.844-83.241c3.524,0.807,7.384,1.742,10.481,2.499    c7.221,1.752,11.42,2.76,13.888,3.092c2.818,0.386,5.643,0.576,8.395,0.576c22.104,0,38.552-11.829,44-31.646    c3.296-11.984,0.798-26.321-6.53-37.412c-6.316-9.566-15.503-15.614-25.887-17.029c-4.565-0.625-13.046-2.435-21.241-4.182    c-7.521-1.607-14.752-3.146-20.611-4.174c0.116-4.56,0.238-9.122,0.34-13.688c0.213-9.209-2.834-17.311-8.811-23.425    C316.702,3.587,307.825,0,298.457,0c-19.027,0-33.703,14.045-34.129,32.662l-0.234,9.14c-6.888-0.068-13.794,0.041-20.215,0.323    c-0.028-0.437-0.058-0.828-0.083-1.15c-1.866-20.784-19.246-31.656-35.447-31.656c-9.532,0-18.367,3.687-24.243,10.11    c-4.009,4.388-8.563,12.093-7.51,23.856c0.213,2.382,0.381,6.01,0.548,9.641c-59.798,19.565-97.893,68.959-95.268,124.261    c0.079,1.6,0.183,3.229,0.267,4.534c0.056,0.848,0.104,1.528,0.114,1.851c0.01,0.696,0.041,1.404,0.099,2.158    c4.329,58.3,50.812,86.105,90.979,99.267c-1.196,22.638-2.224,45.539-3.212,67.78c-7.541-3.585-15.272-7.479-19.746-10.004    c-6.987-3.93-14.277-5.926-21.683-5.926c-19.446,0-37.402,14.63-42.69,34.789c-5.047,19.267,2.747,37.39,20.347,47.297    c16.39,9.227,40.482,20.261,59.06,27.127c-0.383,6.225-0.79,12.461-1.231,18.691c-0.65,9.298,2.08,17.509,7.904,23.755    c5.944,6.378,14.792,10.034,24.273,10.034c16.311,0,33.596-10.974,35.073-31.977c0.104-1.473,0.201-2.955,0.3-4.438    c5.71,0.762,11.451,1.371,17.207,1.828c-0.031,2.082-0.056,3.803-0.094,4.504c-0.388,9.252,2.524,17.402,8.435,23.572    c6.045,6.307,14.912,9.922,24.326,9.922c16.468,0,33.616-11.126,34.536-32.372c0.051-1.214,0.106-4.443,0.152-7.962    c35.479-5.891,64.281-22.206,83.415-47.297c19.429-25.466,25.086-59.438,16.804-100.949    C416.209,311.889,415.94,309.99,415.691,308.269z M379.029,398.56c-19.495,25.553-48.424,34.652-69.244,37.775    c-1.249,0.188-2.498,0.35-3.772,0.513c-8.77,1.076-15.493,9.014-15.635,18.464l-0.071,4.52c-0.056,3.706-0.106,7.353-0.157,8.627    c-0.3,6.962-6.617,7.5-8.557,7.5c-2.29,0-4.418-0.731-5.55-1.909c-0.33-0.346-1.361-1.422-1.229-4.448    c0.056-1.193,0.106-5.281,0.163-9.303l0.04-3.118c0.132-9.933-7.53-18.139-17.448-18.697c-10.245-0.573-20.541-1.696-30.628-3.341    c-0.988-0.157-1.97-0.233-2.927-0.233c-9.468,0-17.06,7.149-17.659,16.63c-0.279,4.413-0.556,8.815-0.869,13.213    c-0.521,7.419-7.701,7.795-9.135,7.795c-2.232,0-4.238-0.676-5.259-1.762c-0.784-0.849-1.117-2.26-0.978-4.21    c0.546-7.83,1.051-15.671,1.523-23.501c0.536-8.704-5.09-17.123-13.373-20.018c-17.476-6.124-42.909-17.631-59.159-26.776    c-9.138-5.134-9.366-12.654-7.952-18.047c1.955-7.46,8.768-15.386,17.54-15.386c2.882,0,5.888,0.868,8.93,2.579    c7.866,4.438,24.034,12.314,34.588,16.874c2.247,0.97,4.575,1.452,6.932,1.452c8.896,0,15.922-6.896,16.333-16.057l0.531-11.811    c1.086-24.39,2.214-49.612,3.554-74.362c0.5-8.917-5.37-17.296-13.977-19.926c-49.241-14.982-74.522-40.431-77.299-77.762    l-0.031-0.785c-0.01-0.477-0.073-1.582-0.162-2.996c-0.079-1.191-0.17-2.677-0.244-4.124    c-2.445-51.43,39.113-87.054,81.388-99.551c8.589-2.542,14.522-10.852,14.102-19.764l-0.15-3.379    c-0.208-4.52-0.426-9.278-0.69-12.279c-0.172-1.881,0.104-3.23,0.8-4.004c0.919-1.003,2.907-1.652,5.055-1.652    c0.904,0,8.854,0.223,9.552,7.982c0.114,1.305,0.198,3.862,0.29,6.391l0.053,1.424c0.337,9.78,8.305,17.44,18.131,17.44    c0.297,0,0.957-0.021,1.244-0.043c7.15-0.482,14.698-0.726,22.445-0.726c3.682,0,7.368,0.051,11.558,0.16    c9.982,0,18.006-7.81,18.266-17.773l0.432-16.899c0.152-6.561,5.742-7.264,8.14-7.264c2.376,0,4.534,0.754,5.764,2.013    c0.36,0.374,1.482,1.519,1.411,4.649c-0.157,6.67-0.33,13.342-0.513,20.017c-0.254,9.643,7.059,18.04,16.65,19.121    c5.165,0.586,15.534,2.803,24.685,4.758c9.069,1.935,17.641,3.765,23.166,4.512c3.636,0.495,6.189,3.318,7.697,5.596    c3.164,4.789,4.454,11.451,3.154,16.193c-2.285,8.323-8.658,12.548-18.937,12.548c-1.584,0-3.229-0.117-4.874-0.34    c-1.407-0.208-7.104-1.59-11.273-2.6c-10.304-2.501-17.94-4.311-22.455-4.814c-10.598-1.155-19.524,6.833-19.85,17.227    c-1.006,32.702-2.128,65.394-3.336,98.083c-0.336,9.069,6.129,17.458,15.025,19.51c35.276,8.176,61.637,31.128,74.209,64.617    c0.214,0.563,0.366,1.152,0.482,1.757c0.147,0.833,0.305,1.95,0.482,3.159c0.32,2.168,0.671,4.56,1.041,6.448    C397.761,352.34,393.74,379.285,379.029,398.56z"/></g></defs><g fi:class="KUsePattern" opacity="0.05"><pattern id="pattern_L1_2" width="350" height="350" patternUnits="userSpaceOnUse"><use xlink:href="#L1_2" x="-350" y="-350"/><use xlink:href="#L1_2" x="0" y="-350"/><use xlink:href="#L1_2" x="350" y="-350"/><use xlink:href="#L1_2" x="-350" y="0"/><use xlink:href="#L1_2" x="0" y="0"/><use xlink:href="#L1_2" x="350" y="0"/><use xlink:href="#L1_2" x="-350" y="350"/><use xlink:href="#L1_2" x="0" y="350"/><use xlink:href="#L1_2" x="350" y="350"/></pattern><rect x="0" y="0" width="100%" height="100%" fill="url(#pattern_L1_2)"/></g><g fi:class="KUsePattern" opacity="0.05"><pattern id="pattern_L1_0" width="350" height="350" patternUnits="userSpaceOnUse"><use xlink:href="#L1_0" x="-350" y="-350"/><use xlink:href="#L1_0" x="0" y="-350"/><use xlink:href="#L1_0" x="350" y="-350"/><use xlink:href="#L1_0" x="-350" y="0"/><use xlink:href="#L1_0" x="0" y="0"/><use xlink:href="#L1_0" x="350" y="0"/><use xlink:href="#L1_0" x="-350" y="350"/><use xlink:href="#L1_0" x="0" y="350"/><use xlink:href="#L1_0" x="350" y="350"/></pattern><rect x="0" y="0" width="100%" height="100%" fill="url(#pattern_L1_0)"/></g><g fi:class="KUsePattern" opacity="0.06"><pattern id="pattern_L1_1" width="350" height="350" patternUnits="userSpaceOnUse"><use xlink:href="#L1_1" x="-350" y="-350"/><use xlink:href="#L1_1" x="0" y="-350"/><use xlink:href="#L1_1" x="350" y="-350"/><use xlink:href="#L1_1" x="-350" y="0"/><use xlink:href="#L1_1" x="0" y="0"/><use xlink:href="#L1_1" x="350" y="0"/><use xlink:href="#L1_1" x="-350" y="350"/><use xlink:href="#L1_1" x="0" y="350"/><use xlink:href="#L1_1" x="350" y="350"/></pattern><rect x="0" y="0" width="100%" height="100%" fill="url(#pattern_L1_1)"/></g><g fi:class="KUsePattern" opacity="0.05"><pattern id="pattern_L1_3" width="350" height="350" patternUnits="userSpaceOnUse"><use xlink:href="#L1_3" x="-350" y="-350"/><use xlink:href="#L1_3" x="0" y="-350"/><use xlink:href="#L1_3" x="350" y="-350"/><use xlink:href="#L1_3" x="-350" y="0"/><use xlink:href="#L1_3" x="0" y="0"/><use xlink:href="#L1_3" x="350" y="0"/><use xlink:href="#L1_3" x="-350" y="350"/><use xlink:href="#L1_3" x="0" y="350"/><use xlink:href="#L1_3" x="350" y="350"/></pattern><rect x="0" y="0" width="100%" height="100%" fill="url(#pattern_L1_3)"/></g><g fi:class="KUsePattern" opacity="0.04"><pattern id="pattern_L1_4" width="350" height="350" patternUnits="userSpaceOnUse"><use xlink:href="#L1_4" x="-350" y="-350"/><use xlink:href="#L1_4" x="0" y="-350"/><use xlink:href="#L1_4" x="350" y="-350"/><use xlink:href="#L1_4" x="-350" y="0"/><use xlink:href="#L1_4" x="0" y="0"/><use xlink:href="#L1_4" x="350" y="0"/><use xlink:href="#L1_4" x="-350" y="350"/><use xlink:href="#L1_4" x="0" y="350"/><use xlink:href="#L1_4" x="350" y="350"/></pattern><rect x="0" y="0" width="100%" height="100%" fill="url(#pattern_L1_4)"/></g><g fi:class="KUsePattern" opacity="0.06"><pattern id="pattern_L1_5" width="350" height="350" patternUnits="userSpaceOnUse"><use xlink:href="#L1_5" x="-350" y="-350"/><use xlink:href="#L1_5" x="0" y="-350"/><use xlink:href="#L1_5" x="350" y="-350"/><use xlink:href="#L1_5" x="-350" y="0"/><use xlink:href="#L1_5" x="0" y="0"/><use xlink:href="#L1_5" x="350" y="0"/><use xlink:href="#L1_5" x="-350" y="350"/><use xlink:href="#L1_5" x="0" y="350"/><use xlink:href="#L1_5" x="350" y="350"/></pattern><rect x="0" y="0" width="100%" height="100%" fill="url(#pattern_L1_5)"/></g><g fi:class="KUsePattern" opacity="0.05"><pattern id="pattern_L1_7" width="350" height="350" patternUnits="userSpaceOnUse"><use xlink:href="#L1_7" x="-350" y="-350"/><use xlink:href="#L1_7" x="0" y="-350"/><use xlink:href="#L1_7" x="350" y="-350"/><use xlink:href="#L1_7" x="-350" y="0"/><use xlink:href="#L1_7" x="0" y="0"/><use xlink:href="#L1_7" x="350" y="0"/><use xlink:href="#L1_7" x="-350" y="350"/><use xlink:href="#L1_7" x="0" y="350"/><use xlink:href="#L1_7" x="350" y="350"/></pattern><rect x="0" y="0" width="100%" height="100%" fill="url(#pattern_L1_7)"/></g><g fi:class="KUsePattern" opacity="0.05"><pattern id="pattern_L1_8" width="350" height="350" patternUnits="userSpaceOnUse"><use xlink:href="#L1_8" x="-350" y="-350"/><use xlink:href="#L1_8" x="0" y="-350"/><use xlink:href="#L1_8" x="350" y="-350"/><use xlink:href="#L1_8" x="-350" y="0"/><use xlink:href="#L1_8" x="0" y="0"/><use xlink:href="#L1_8" x="350" y="0"/><use xlink:href="#L1_8" x="-350" y="350"/><use xlink:href="#L1_8" x="0" y="350"/><use xlink:href="#L1_8" x="350" y="350"/></pattern><rect x="0" y="0" width="100%" height="100%" fill="url(#pattern_L1_8)"/></g><g fi:class="KUsePattern" opacity="0.04"><pattern id="pattern_L1_9" width="350" height="350" patternUnits="userSpaceOnUse"><use xlink:href="#L1_9" x="-350" y="-350"/><use xlink:href="#L1_9" x="0" y="-350"/><use xlink:href="#L1_9" x="350" y="-350"/><use xlink:href="#L1_9" x="-350" y="0"/><use xlink:href="#L1_9" x="0" y="0"/><use xlink:href="#L1_9" x="350" y="0"/><use xlink:href="#L1_9" x="-350" y="350"/><use xlink:href="#L1_9" x="0" y="350"/><use xlink:href="#L1_9" x="350" y="350"/></pattern><rect x="0" y="0" width="100%" height="100%" fill="url(#pattern_L1_9)"/></g><g fi:class="KUsePattern" opacity="0.07"><pattern id="pattern_L1_10" width="350" height="350" patternUnits="userSpaceOnUse"><use xlink:href="#L1_10" x="-350" y="-350"/><use xlink:href="#L1_10" x="0" y="-350"/><use xlink:href="#L1_10" x="350" y="-350"/><use xlink:href="#L1_10" x="-350" y="0"/><use xlink:href="#L1_10" x="0" y="0"/><use xlink:href="#L1_10" x="350" y="0"/><use xlink:href="#L1_10" x="-350" y="350"/><use xlink:href="#L1_10" x="0" y="350"/><use xlink:href="#L1_10" x="350" y="350"/></pattern><rect x="0" y="0" width="100%" height="100%" fill="url(#pattern_L1_10)"/></g><g fi:class="KUsePattern" transform="matrix(1 0 0 1 20 20)" opacity="0.07"><pattern id="pattern_UNKNOWN" width="350" height="350" patternUnits="userSpaceOnUse"><use xlink:href="#UNKNOWN" x="-350" y="-350"/><use xlink:href="#UNKNOWN" x="0" y="-350"/><use xlink:href="#UNKNOWN" x="350" y="-350"/><use xlink:href="#UNKNOWN" x="-350" y="0"/><use xlink:href="#UNKNOWN" x="0" y="0"/><use xlink:href="#UNKNOWN" x="350" y="0"/><use xlink:href="#UNKNOWN" x="-350" y="350"/><use xlink:href="#UNKNOWN" x="0" y="350"/><use xlink:href="#UNKNOWN" x="350" y="350"/></pattern><rect x="0" y="0" width="100%" height="100%" fill="url(#pattern_UNKNOWN)"/></g><g fi:class="KUsePattern" opacity="0.06"><pattern id="pattern_L1_12" width="350" height="350" patternUnits="userSpaceOnUse"><use xlink:href="#L1_12" x="-350" y="-350"/><use xlink:href="#L1_12" x="0" y="-350"/><use xlink:href="#L1_12" x="350" y="-350"/><use xlink:href="#L1_12" x="-350" y="0"/><use xlink:href="#L1_12" x="0" y="0"/><use xlink:href="#L1_12" x="350" y="0"/><use xlink:href="#L1_12" x="-350" y="350"/><use xlink:href="#L1_12" x="0" y="350"/><use xlink:href="#L1_12" x="350" y="350"/></pattern><rect x="0" y="0" width="100%" height="100%" fill="url(#pattern_L1_12)"/></g><g fi:class="KUsePattern" opacity="0.05"><pattern id="pattern_L1_13" width="350" height="350" patternUnits="userSpaceOnUse"><use xlink:href="#L1_13" x="-350" y="-350"/><use xlink:href="#L1_13" x="0" y="-350"/><use xlink:href="#L1_13" x="350" y="-350"/><use xlink:href="#L1_13" x="-350" y="0"/><use xlink:href="#L1_13" x="0" y="0"/><use xlink:href="#L1_13" x="350" y="0"/><use xlink:href="#L1_13" x="-350" y="350"/><use xlink:href="#L1_13" x="0" y="350"/><use xlink:href="#L1_13" x="350" y="350"/></pattern><rect x="0" y="0" width="100%" height="100%" fill="url(#pattern_L1_13)"/></g><g fi:class="KUsePattern" opacity="0.05"><pattern id="pattern_L1_14" width="350" height="350" patternUnits="userSpaceOnUse"><use xlink:href="#L1_14" x="-350" y="-350"/><use xlink:href="#L1_14" x="0" y="-350"/><use xlink:href="#L1_14" x="350" y="-350"/><use xlink:href="#L1_14" x="-350" y="0"/><use xlink:href="#L1_14" x="0" y="0"/><use xlink:href="#L1_14" x="350" y="0"/><use xlink:href="#L1_14" x="-350" y="350"/><use xlink:href="#L1_14" x="0" y="350"/><use xlink:href="#L1_14" x="350" y="350"/></pattern><rect x="0" y="0" width="100%" height="100%" fill="url(#pattern_L1_14)"/></g><g fi:class="KUsePattern" opacity="0.05"><pattern id="pattern_L1_16" width="350" height="350" patternUnits="userSpaceOnUse"><use xlink:href="#L1_16" x="-350" y="-350"/><use xlink:href="#L1_16" x="0" y="-350"/><use xlink:href="#L1_16" x="350" y="-350"/><use xlink:href="#L1_16" x="-350" y="0"/><use xlink:href="#L1_16" x="0" y="0"/><use xlink:href="#L1_16" x="350" y="0"/><use xlink:href="#L1_16" x="-350" y="350"/><use xlink:href="#L1_16" x="0" y="350"/><use xlink:href="#L1_16" x="350" y="350"/></pattern><rect x="0" y="0" width="100%" height="100%" fill="url(#pattern_L1_16)"/></g><g fi:class="KUsePattern" transform="matrix(1 0 0 1 20 20)" opacity="0.07"><pattern id="pattern_UNKNOWN" width="350" height="350" patternUnits="userSpaceOnUse"><use xlink:href="#UNKNOWN" x="-350" y="-350"/><use xlink:href="#UNKNOWN" x="0" y="-350"/><use xlink:href="#UNKNOWN" x="350" y="-350"/><use xlink:href="#UNKNOWN" x="-350" y="0"/><use xlink:href="#UNKNOWN" x="0" y="0"/><use xlink:href="#UNKNOWN" x="350" y="0"/><use xlink:href="#UNKNOWN" x="-350" y="350"/><use xlink:href="#UNKNOWN" x="0" y="350"/><use xlink:href="#UNKNOWN" x="350" y="350"/></pattern><rect x="0" y="0" width="100%" height="100%" fill="url(#pattern_UNKNOWN)"/></g></svg>
