<svg xmlns="http://www.w3.org/2000/svg" xmlns:xlink="http://www.w3.org/1999/xlink" xmlns:fi="http://pattern.flaticon.com/" x="0" y="0" width="193" height="152" viewBox="0 0 392.7325581395349 309.30232558139534"><rect x="0px" y="0px" width="100%" height="100%" opacity="1" fill="#ffffff"/><defs><g transform="matrix(0.1171875 0 0 0.1171875 181 37)" id="L1_1"><path d="M384,477.867c2.185,0,4.369-0.836,6.033-2.5l51.2-51.2c1.604-1.596,2.5-3.772,2.5-6.033V76.8     c0-4.71-3.814-8.533-8.533-8.533H384c-4.719,0-8.533,3.823-8.533,8.533s3.814,8.533,8.533,8.533h42.667v329.267l-48.7,48.7     c-3.336,3.336-3.336,8.73,0,12.066C379.631,477.03,381.816,477.867,384,477.867z"/><path d="M128,85.333c4.719,0,8.533-3.823,8.533-8.533s-3.814-8.533-8.533-8.533H76.8c-4.719,0-8.533,3.823-8.533,8.533v366.933     c0,18.825,15.309,34.133,34.133,34.133h247.467c4.719,0,8.533-3.823,8.533-8.533v-51.2c0-3.866,3.806-8.533,8.533-8.533h34.133     c4.719,0,8.533-3.823,8.533-8.533s-3.814-8.533-8.533-8.533h-34.133c-13.636,0-25.6,11.964-25.6,25.6V460.8H102.4     c-9.412,0-17.067-7.654-17.067-17.067v-358.4H128z"/><path d="M256,34.133c-9.412,0-17.067,7.654-17.067,17.067c0,9.412,7.654,17.067,17.067,17.067     c9.412,0,17.067-7.654,17.067-17.067C273.067,41.788,265.412,34.133,256,34.133z"/><path d="M435.2,34.133H384c-4.719,0-8.533,3.823-8.533,8.533c0,4.71,3.814,8.533,8.533,8.533h51.2     c12.442,0,25.6,13.158,25.6,25.6v392.533c0,12.442-13.158,25.6-25.6,25.6H76.8c-12.442,0-25.6-13.158-25.6-25.6V76.8     c0-12.442,13.158-25.6,25.6-25.6H128c4.719,0,8.533-3.823,8.533-8.533c0-4.71-3.814-8.533-8.533-8.533H76.8     c-21.931,0-42.667,20.736-42.667,42.667v392.533C34.133,491.264,54.869,512,76.8,512h358.4c21.931,0,42.667-20.736,42.667-42.667     V76.8C477.867,54.869,457.131,34.133,435.2,34.133z"/><path d="M102.4,281.6c0,4.71,3.814,8.533,8.533,8.533h34.133c3.678,0,6.938-2.347,8.09-5.837l26.044-78.114l60.177,180.514     c1.135,3.413,4.284,5.743,7.885,5.837h0.205c3.507,0,6.673-2.15,7.953-5.444l52.753-135.654l16.99,33.98     c1.451,2.893,4.403,4.719,7.637,4.719h27.179C363.512,300.049,372.89,307.2,384,307.2c14.114,0,25.6-11.486,25.6-25.6     S398.114,256,384,256c-11.11,0-20.489,7.151-24.021,17.067h-21.905l-23.236-46.481c-1.51-3.021-4.881-4.779-8.03-4.71     c-3.371,0.162-6.34,2.287-7.56,5.436l-51.166,131.558L187.29,176.503c-1.152-3.49-4.412-5.837-8.09-5.837     s-6.929,2.347-8.09,5.837l-32.196,96.563h-27.981C106.214,273.067,102.4,276.89,102.4,281.6z M384,273.067     c4.71,0,8.533,3.831,8.533,8.533c0,4.702-3.823,8.533-8.533,8.533s-8.533-3.831-8.533-8.533     C375.467,276.898,379.29,273.067,384,273.067z"/><path d="M162.133,102.4h187.733c4.719,0,8.533-3.823,8.533-8.533v-51.2c0-4.71-3.814-8.533-8.533-8.533h-45.594     C297.148,13.995,277.854,0,256,0s-41.148,13.995-48.273,34.133h-45.594c-4.719,0-8.533,3.823-8.533,8.533v51.2     C153.6,98.577,157.414,102.4,162.133,102.4z M170.667,51.2h43.529c4.053,0,7.552-2.859,8.354-6.835     c3.217-15.821,17.28-27.298,33.451-27.298s30.234,11.477,33.451,27.298c0.802,3.977,4.301,6.835,8.354,6.835h43.529v34.133     H170.667V51.2z"/></g><g transform="matrix(1 0 0 1 43 93)" id="L1_2"><circle cx="46" cy="5" r="1"/><circle cx="33" cy="24" r="1"/><path d="M57,33V19c0-4.411-3.589-8-8-8s-8,3.589-8,8v14c0,4.411,3.589,8,8,8S57,37.411,57,33z M49,13c3.309,0,6,2.691,6,6v6H43v-6   C43,15.691,45.691,13,49,13z M49,39c-3.309,0-6-2.691-6-6v-6h12v6C55,36.309,52.309,39,49,39z"/><path d="M22.234,36.452l-9.899,9.899C10.829,47.857,10,49.866,10,52.008c0,2.143,0.829,4.151,2.335,5.657   C13.84,59.171,15.849,60,17.992,60c2.142,0,4.151-0.829,5.657-2.335l9.899-9.899c3.119-3.119,3.119-8.194,0-11.313   C30.428,33.333,25.353,33.333,22.234,36.452z M22.234,56.251C21.106,57.379,19.6,58,17.992,58c-1.608,0-3.115-0.621-4.243-1.749   S12,53.617,12,52.008c0-1.608,0.621-3.115,1.749-4.243l4.243-4.243l8.485,8.485L22.234,56.251z M32.134,46.352l-4.243,4.243   l-8.485-8.485l4.243-4.243c1.17-1.169,2.706-1.754,4.243-1.754c1.536,0,3.073,0.585,4.243,1.754   C34.473,40.206,34.473,44.012,32.134,46.352z"/><path d="M13.234,23.548c1.56,1.56,3.608,2.339,5.657,2.339c2.048,0,4.097-0.78,5.657-2.339c3.119-3.12,3.119-8.195,0-11.313   l-9.899-9.899C13.143,0.829,11.134,0,8.992,0C6.849,0,4.84,0.829,3.335,2.335C1.829,3.84,1,5.849,1,7.992   c0,2.142,0.829,4.151,2.335,5.657L13.234,23.548z M23.134,22.134c-2.34,2.339-6.146,2.339-8.485,0l-4.243-4.243l8.485-8.485   l4.243,4.243C25.473,15.988,25.473,19.794,23.134,22.134z M4.749,3.749C5.877,2.621,7.383,2,8.992,2   c1.608,0,3.115,0.621,4.243,1.749l4.243,4.243l-8.485,8.485l-4.243-4.243C3.621,11.106,3,9.6,3,7.992   C3,6.383,3.621,4.877,4.749,3.749z"/><path d="M11.171,36c0.552,0,1-0.448,1-1s-0.448-1-1-1h-3v-3c0-0.552-0.448-1-1-1s-1,0.448-1,1v3h-3c-0.552,0-1,0.448-1,1   s0.448,1,1,1h3v3c0,0.552,0.448,1,1,1s1-0.448,1-1v-3H11.171z"/><path d="M56.586,53.828l2.121-2.121c0.391-0.391,0.391-1.023,0-1.414s-1.023-0.391-1.414,0l-2.121,2.121l-2.121-2.121   c-0.391-0.391-1.023-0.391-1.414,0s-0.391,1.023,0,1.414l2.121,2.121l-2.121,2.121c-0.391,0.391-0.391,1.023,0,1.414   c0.195,0.195,0.451,0.293,0.707,0.293s0.512-0.098,0.707-0.293l2.121-2.121l2.121,2.121c0.195,0.195,0.451,0.293,0.707,0.293   s0.512-0.098,0.707-0.293c0.391-0.391,0.391-1.023,0-1.414L56.586,53.828z"/></g><g transform="matrix(0.9018846154212952 0 0 0.9018846154212952 289.4795655229583 13.42973256111145)" id="L1_3"><path d="M53.065,10.657c-0.818-3.096-3.213-6.05-6.742-8.317c-4.35-2.796-10.497-3.11-16.047-0.813l-0.182,0.077   c-0.097,0.042-0.191,0.084-0.292,0.119c-0.465,0.161-0.822,0.3-1.113,0.413c-0.923,0.356-0.922,0.357-2.44-0.09   c-4.335-1.277-9.851-2.553-14.087-1.053c-5.73,2.031-10.809,8.753-9.238,19.19c0.187,1.235,0.367,2.48,0.549,3.731   c1.313,9.016,2.668,18.339,6.155,26.758l0.12,0.291c0.865,2.107,2.314,5.635,4.836,5.635h0.203l0.187-0.079   c2.315-0.98,3.181-3.202,3.812-4.824c0.427-1.095,0.807-2.21,1.174-3.288c0.928-2.723,1.804-5.295,3.383-7.604   c1.197-1.751,4.425-5.563,8.556-3.101c2.755,1.641,3.619,4.952,4.455,8.154c0.238,0.914,0.485,1.859,0.771,2.741   c1.211,3.729,2.784,7.574,5.268,7.829c1.294,0.128,2.515-0.751,3.588-2.63c1.96-3.435,2.801-7.261,3.613-10.961l0.285-1.293   c0.32-1.43,0.676-2.905,1.039-4.413C52.961,28.64,55.277,19.018,53.065,10.657z M48.973,36.661   c-0.366,1.519-0.724,3.005-1.046,4.444l-0.288,1.301c-0.78,3.555-1.587,7.229-3.396,10.398c-0.608,1.066-1.21,1.655-1.647,1.633   c-0.458-0.047-1.722-0.771-3.569-6.457c-0.269-0.826-0.497-1.702-0.738-2.629c-0.895-3.425-1.907-7.307-5.367-9.368   c-3.817-2.271-8.12-0.857-11.229,3.69c-1.733,2.535-2.695,5.358-3.625,8.088c-0.361,1.059-0.733,2.153-1.145,3.207   c-0.64,1.642-1.238,2.961-2.512,3.608c-1.133-0.283-2.344-3.229-2.813-4.373l-0.122-0.297c-3.392-8.188-4.729-17.386-6.023-26.28   c-0.183-1.255-0.364-2.503-0.55-3.74c-1.01-6.71,1.05-14.57,7.928-17.009c1.12-0.396,2.389-0.557,3.717-0.557   c3.058,0,6.428,0.849,9.024,1.611c6.423,3.649,6.423,5.228,6.397,11.753l-0.003,1.32c0,0.553,0.447,1,1,1s1-0.447,1-1l0.003-1.313   C33.991,9.972,33.983,7.278,29.413,4l0.001,0c0.273-0.106,0.607-0.236,1.041-0.387c0.146-0.051,0.291-0.112,0.438-0.176   l0.149-0.064c4.951-2.047,10.392-1.8,14.199,0.648c3.108,1.998,5.2,4.536,5.891,7.147C53.215,19.041,50.961,28.402,48.973,36.661z"/><path d="M20.966,11.005H19.38l-2.414-2.414V7.005c0-0.553-0.447-1-1-1c-0.553,0-1,0.447-1,1v1.586l-2.414,2.414h-1.586   c-0.553,0-1,0.447-1,1s0.447,1,1,1h1.586l2.414,2.414v1.586c0,0.553,0.447,1,1,1c0.553,0,1-0.447,1-1v-1.586l2.414-2.414h1.586   c0.553,0,1-0.447,1-1S21.518,11.005,20.966,11.005z M15.966,13.591l-1.586-1.586l1.586-1.586l1.586,1.586L15.966,13.591z"/><path d="M46.966,29.005H45.38l-2.414-2.414v-1.586c0-0.553-0.447-1-1-1s-1,0.447-1,1v1.586l-2.414,2.414h-1.586   c-0.553,0-1,0.447-1,1s0.447,1,1,1h1.586l2.414,2.414v1.586c0,0.553,0.447,1,1,1s1-0.447,1-1v-1.586l2.414-2.414h1.586   c0.553,0,1-0.447,1-1S47.518,29.005,46.966,29.005z M41.966,31.591l-1.586-1.586l1.586-1.586l1.586,1.586L41.966,31.591z"/></g><path d="M298.915,269.268c-0.008,0.008-0.024,0.024-0.032,0.04l-68.138-34.255c3.049-13.577,0.568-28.137-7.498-40.079    l12.511-10.029c14.339,8.875,33.35,7.176,45.793-5.268c14.527-14.511,14.527-38.046,0-52.563    c-14.515-14.525-38.051-14.525-52.577,0c-12.748,12.75-14.283,32.428-4.645,46.883l-11.778,9.428    c-8.087-6.436-17.654-10.104-27.437-10.977l-6.727-57.777c5.324-2.473,10.329-5.849,14.719-10.245    c20.113-20.113,20.113-52.738,0-72.843c-20.113-20.113-52.722-20.113-72.843,0.008c-20.113,20.113-20.113,52.722,0,72.835    c8.632,8.636,19.577,13.542,30.85,14.757l11.926,56.156c-6.893,2.486-13.385,6.444-18.917,11.97    c-2.599,2.599-4.845,5.41-6.776,8.37l-37.754-18.953c0.307-5.446-1.545-10.997-5.715-15.174c-7.754-7.749-20.324-7.749-28.078,0    c-7.758,7.758-7.758,20.326,0,28.082c7.334,7.332,18.923,7.652,26.729,1.114l38.396,19.282    c-2.709,9.874-2.419,20.386,0.863,30.128l-51.499,36.019c-20.031-13.541-47.47-11.461-65.203,6.271    c-20.113,20.113-20.113,52.726,0,72.835s52.722,20.109,72.843-0.008c13.98-13.982,18.212-34.007,12.756-51.676l43.46-43.457    c7.859,7.859,17.633,12.6,27.808,14.323l2.046,24.93c-4.089,1.651-7.927,4.12-11.239,7.446    c-13.188,13.176-13.188,34.544-0.012,47.729c13.19,13.18,34.562,13.18,47.745,0c13.176-13.185,13.176-34.553-0.016-47.729    c-5.827-5.835-13.271-8.941-20.903-9.614l-1.843-22.554c10.702-1.495,21.027-6.304,29.262-14.535    c0.89-0.877,1.671-1.811,2.477-2.745l64.728,42.663c-1.635,14.988,3.274,30.549,14.748,42.034    c20.101,20.109,52.729,20.109,72.839,0c20.109-20.117,20.109-52.729,0-72.839C351.652,249.159,319.032,249.159,298.915,269.268z" transform="matrix(0.15509286522865295 0 0 0.15509286522865295 166 124.0000001514577)" id="L1_4"/><g transform="matrix(1.0000333786010742 0 0 1.0000333786010742 64 181.9999978026608)" id="L1_5"><path d="M59.457,35.985c-1.753-2.442-3.53-2.481-7.979-0.14l-8.623,5.272c-1.278,0.68-3.901,0.884-6.445,0.927   c0.452-0.941,0.25-2.064-0.604-3.34c-0.791-1.18-1.868-2.118-3.118-2.759C34.76,34.261,36,31.754,36,28.999c0-4.962-4.037-9-9-9   s-9,4.038-9,9c0,1.481,0.368,2.895,1.027,4.156c-0.013-0.009-0.027-0.017-0.039-0.027c-3.59-2.707-9.588-3.089-11.987-3.13v-3.027   H0v32.028h7v-3h13c2.04,0,4.098-0.156,6.116-0.462l12.963-1.971c0.472-0.006,0.95-0.062,1.376-0.158   c1.194-0.168,2.335-0.738,3.302-1.65l15.157-11.804l0.023-0.019C60.118,38.958,60.346,37.222,59.457,35.985z M23.17,34.848   C21.181,33.546,20,31.374,20,28.999c0-3.86,3.141-7,7-7s7,3.14,7,7c0,2.586-1.391,4.909-3.652,6.139   c-0.124-0.024-0.25-0.036-0.375-0.055c-0.125-0.019-0.248-0.041-0.375-0.055c-0.325-0.036-0.652-0.058-0.98-0.058h-3.9   C24.215,34.971,23.695,34.93,23.17,34.848z M5,56.999H2V28.971h3v1.061v25.968V56.999z M57.672,38.387L42.489,50.21l-0.077,0.067   c-0.67,0.641-1.443,1.039-2.334,1.168c-0.364,0.081-0.727,0.122-1.078,0.122l-13.185,1.993c-1.919,0.292-3.876,0.44-5.815,0.44H7   V32.001c2.217,0.046,7.706,0.404,10.784,2.724c1.336,1.008,2.937,1.692,4.645,2.02l0.015,0.009l0.19,0.033   c0.01,0.002,0.019,0.002,0.029,0.004c0.328,0.056,0.66,0.101,0.995,0.13c0.011,0.001,0.022,0.003,0.032,0.004   c0.34,0.029,0.682,0.046,1.027,0.046h3.9c0.55,0,1.1,0.065,1.634,0.193l0.064,0.016c1.573,0.39,2.94,1.315,3.827,2.638   c0.421,0.627,0.587,1.148,0.446,1.393c-0.267,0.462-1.506,0.746-2.763,0.801c-0.409-0.007-0.782-0.012-1.109-0.012H21   c-3.131,0-5,1.495-5,4c0,0.552,0.447,1,1,1s1-0.448,1-1c0-0.495,0-2,3-2h9.694c0.227,0.014,0.663,0.033,1.212,0.013   c0.172,0.003,0.35,0.006,0.532,0.009c4.693,0.087,9.094,0.063,11.408-1.169l8.618-5.27c4.124-2.167,4.539-1.586,5.367-0.432   C58.108,37.535,58.037,38.076,57.672,38.387z"/><path d="M32,28.999c0-2.757-2.243-5-5-5s-5,2.243-5,5s2.243,5,5,5S32,31.756,32,28.999z M27,31.999c-1.654,0-3-1.346-3-3   s1.346-3,3-3s3,1.346,3,3S28.654,31.999,27,31.999z"/><path d="M42,18.999c4.963,0,9-4.038,9-9s-4.037-9-9-9s-9,4.038-9,9S37.037,18.999,42,18.999z M42,2.999c3.859,0,7,3.14,7,7   s-3.141,7-7,7s-7-3.14-7-7S38.141,2.999,42,2.999z"/><path d="M42,14.999c2.757,0,5-2.243,5-5s-2.243-5-5-5s-5,2.243-5,5S39.243,14.999,42,14.999z M42,6.999c1.654,0,3,1.346,3,3   s-1.346,3-3,3s-3-1.346-3-3S40.346,6.999,42,6.999z"/></g><g transform="matrix(0.1171875 0 0 0.1171875 258.0000021457672 102)" id="L1_7"><path d="m240.5,185.7c-10.4-8.5-26-14.8-46.9-20.1h-1v-52.9c14.6,2.1 27.1,7.4 39.6,15.9l17.7-25.4c-17.7-12.8-37.5-20.2-57.3-21.2v-14.8h-17.7v12.7c-17.7,1.1-32.3,6.3-43.8,16.9s-16.7,24.3-16.7,40.2c0,16.9 5.2,28.6 14.6,37 9.4,8.5 25,14.8 45.8,20.1v55c-16.7-2.1-32.3-10.6-47.9-24.3l-19.8,24.3c19.8,18 42.7,28.6 67.7,30.7v20.1h17.7v-20.1c18.8-1.1 34.4-6.3 45.8-16.9 11.5-10.6 16.7-24.3 16.7-40.2s-4.1-28.6-14.5-37zm-66.7-25.4c-10.4-3.2-16.7-7.4-20.8-10.6-3.1-3.2-5.2-8.5-5.2-14.8 0-6.3 2.1-11.6 7.3-15.9 4.2-4.2 11.5-7.4 18.8-7.4v48.7zm39.5,81.4c-5.2,4.2-12.5,7.4-21.9,8.5v-50.8c11.5,3.2 18.8,6.3 22.9,10.6 4.2,4.2 6.3,9.5 6.3,15.9-2.84217e-14,6.3-2.1,11.6-7.3,15.8z"/><path d="m488.4,425.8l-111.4-113.2-24,24.3-42.7-43.3c24.7-29.9 39.5-68.4 39.5-110.4 0-95-75.9-172-169.4-172s-169.4,77-169.4,172 75.9,172 169.4,172c44.7,0 85.3-17.6 115.6-46.2l42.3,42.9-22.8,23.1 110.4,113.2c20.5,21.6 51.7,12 62.5,1.1 11-11.7 21.9-42.1 0-63.5zm-307.9-91.8c-82.1,0-148.6-67.5-148.6-150.9s66.5-150.8 148.6-150.8 148.6,67.5 148.6,150.9-66.6,150.8-148.6,150.8zm292.3,139.4c-8.3,8.5-24,8.5-32.3,0l-96.9-98.4 32.3-33.9 96.9,98.4c14.8,12.8 4.2,29.7-5.68434e-14,33.9z"/></g><g transform="matrix(1 0 0 1 290 186.0000001525882)" id="L1_8"><path d="M5.508,12.424c0.502-0.229,0.723-0.822,0.493-1.325c-0.23-0.502-0.822-0.725-1.325-0.493   c-0.693,0.316-1.338,0.731-1.915,1.231c-0.417,0.362-0.462,0.994-0.101,1.411c0.198,0.228,0.477,0.345,0.756,0.345   c0.232,0,0.466-0.08,0.655-0.244C4.504,12.973,4.987,12.662,5.508,12.424z"/><path d="M9,11.884h2c0.553,0,1-0.447,1-1s-0.447-1-1-1H9c-0.553,0-1,0.447-1,1S8.447,11.884,9,11.884z"/><path d="M15,11.884h2c0.553,0,1-0.447,1-1s-0.447-1-1-1h-2c-0.553,0-1,0.447-1,1S14.447,11.884,15,11.884z"/><path d="M11,23.884H9c-0.553,0-1,0.447-1,1s0.447,1,1,1h2c0.553,0,1-0.447,1-1S11.553,23.884,11,23.884z"/><path d="M23,23.884h-2c-0.553,0-1,0.447-1,1s0.447,1,1,1h2c0.553,0,1-0.447,1-1S23.553,23.884,23,23.884z"/><path d="M17,23.884h-2c-0.553,0-1,0.447-1,1s0.447,1,1,1h2c0.553,0,1-0.447,1-1S17.553,23.884,17,23.884z"/><path d="M5.508,23.344c-0.52-0.238-1.003-0.549-1.436-0.925c-0.417-0.361-1.048-0.316-1.411,0.101   c-0.361,0.417-0.316,1.049,0.101,1.411c0.577,0.5,1.221,0.914,1.914,1.231c0.135,0.062,0.276,0.091,0.415,0.091   c0.38,0,0.742-0.217,0.91-0.584C6.23,24.167,6.01,23.573,5.508,23.344z"/><path d="M29,23.884h-2c-0.553,0-1,0.447-1,1s0.447,1,1,1h2c0.553,0,1-0.447,1-1S29.553,23.884,29,23.884z"/><path d="M47,23.884h-2c-0.553,0-1,0.447-1,1s0.447,1,1,1h2c0.553,0,1-0.447,1-1S47.553,23.884,47,23.884z"/><path d="M53,23.884h-2c-0.553,0-1,0.447-1,1s0.447,1,1,1h2c0.553,0,1-0.447,1-1S53.553,23.884,53,23.884z"/><path d="M35,23.884h-2c-0.553,0-1,0.447-1,1s0.447,1,1,1h2c0.553,0,1-0.447,1-1S35.553,23.884,35,23.884z"/><path d="M41,23.884h-2c-0.553,0-1,0.447-1,1s0.447,1,1,1h2c0.553,0,1-0.447,1-1S41.553,23.884,41,23.884z"/><path d="M5.508,53.344c-0.52-0.238-1.003-0.549-1.436-0.925c-0.417-0.361-1.048-0.316-1.411,0.101   c-0.361,0.417-0.316,1.049,0.101,1.411c0.577,0.5,1.221,0.914,1.914,1.231c0.135,0.062,0.276,0.091,0.415,0.091   c0.38,0,0.742-0.217,0.91-0.584C6.23,54.167,6.01,53.573,5.508,53.344z"/><path d="M17,53.884h-2c-0.553,0-1,0.447-1,1s0.447,1,1,1h2c0.553,0,1-0.447,1-1S17.553,53.884,17,53.884z"/><path d="M11,53.884H9c-0.553,0-1,0.447-1,1s0.447,1,1,1h2c0.553,0,1-0.447,1-1S11.553,53.884,11,53.884z"/><path d="M35,53.884h-2c-0.553,0-1,0.447-1,1s0.447,1,1,1h2c0.553,0,1-0.447,1-1S35.553,53.884,35,53.884z"/><path d="M38,54.884c0,0.553,0.447,1,1,1h2c0.553,0,1-0.447,1-1s-0.447-1-1-1h-2C38.447,53.884,38,54.331,38,54.884z"/><path d="M45,55.884h2c0.553,0,1-0.447,1-1s-0.447-1-1-1h-2c-0.553,0-1,0.447-1,1S44.447,55.884,45,55.884z"/><path d="M29,53.884h-2c-0.553,0-1,0.447-1,1s0.447,1,1,1h2c0.553,0,1-0.447,1-1S29.553,53.884,29,53.884z"/><path d="M51,55.884h2c0.553,0,1-0.447,1-1s-0.447-1-1-1h-2c-0.553,0-1,0.447-1,1S50.447,55.884,51,55.884z"/><path d="M23,53.884h-2c-0.553,0-1,0.447-1,1s0.447,1,1,1h2c0.553,0,1-0.447,1-1S23.553,53.884,23,53.884z"/><path d="M44,38.884c0,2.206,1.794,4,4,4s4-1.794,4-4s-1.794-4-4-4S44,36.678,44,38.884z M48,36.884c1.103,0,2,0.897,2,2   s-0.897,2-2,2s-2-0.897-2-2S46.897,36.884,48,36.884z"/><path d="M42.942,5.884l-5.436-5.436c-0.443-0.443-1.166-0.443-1.609,0l-2.046,2.046l-2.046-2.046c-0.443-0.443-1.166-0.443-1.609,0   L24.76,5.884H8c-4.411,0-8,3.589-8,8v38.848c0,3.943,3.209,7.152,7.152,7.152H60v-14v-14v-10v-2v-14H42.942z M36.702,2.472   l3.412,3.412l14,14h-5.391L37.456,8.616c-0.423-0.411-1.086-0.41-1.519,0.011L24.681,19.884H19.29L35.266,3.909l0,0L36.702,2.472z    M45.896,19.884H27.509l9.193-9.193L45.896,19.884z M31,2.472l1.437,1.437L16.462,19.884h-2.874l14-14L31,2.472z M8,7.884h14.76   l-2.061,2.061c-0.303,0.098-0.535,0.329-0.633,0.633l-9.306,9.306H8c-3.309,0-6-2.691-6-6S4.691,7.884,8,7.884z M58,43.884H47   c-2.757,0-5-2.243-5-5s2.243-5,5-5h11V43.884z M58,23.884h-1c-0.553,0-1,0.447-1,1s0.447,1,1,1h1v6H47c-3.859,0-7,3.141-7,7   s3.141,7,7,7h11v8h-1c-0.553,0-1,0.447-1,1s0.447,1,1,1h1v2H7.152C4.312,57.884,2,55.573,2,52.732v-2.204   c0.233-0.25,0.345-0.603,0.241-0.954C2.081,49.028,2,48.459,2,47.884V20.528c0.233-0.25,0.345-0.603,0.241-0.954   c-0.019-0.065-0.026-0.132-0.043-0.197c0.09,0.095,0.181,0.188,0.275,0.278c0.086,0.083,0.175,0.162,0.265,0.241   c0.112,0.098,0.226,0.193,0.343,0.285c0.094,0.074,0.19,0.145,0.287,0.215c0.121,0.087,0.246,0.169,0.372,0.249   c0.101,0.064,0.202,0.126,0.306,0.186c0.132,0.075,0.267,0.145,0.403,0.213c0.105,0.053,0.21,0.106,0.318,0.154   c0.143,0.063,0.289,0.119,0.435,0.174c0.108,0.041,0.215,0.083,0.325,0.119c0.157,0.051,0.317,0.092,0.477,0.134   c0.106,0.027,0.21,0.059,0.318,0.082c0.181,0.039,0.365,0.065,0.55,0.091c0.092,0.013,0.182,0.032,0.275,0.042   c0.28,0.03,0.564,0.047,0.851,0.047h3.816h2.828h2.874h2.828H25.3h22.805h4.953h2.828H58V23.884z M56.942,19.884l-8-8H49   c0.553,0,1-0.447,1-1s-0.447-1-1-1h-2c-0.017,0-0.031,0.009-0.048,0.01l-2.01-2.01H58v12H56.942z"/><path d="M55,9.884h-2c-0.553,0-1,0.447-1,1s0.447,1,1,1h2c0.553,0,1-0.447,1-1S55.553,9.884,55,9.884z"/></g><path d="M396.399,67.735c-2.731-14.978-9.574-28.905-19.791-40.284c-0.02-0.022-0.039-0.045-0.059-0.067  c-5.233-5.909-13.905-14.033-25.497-19.181l-0.264-0.117C339.6,2.72,327.594,0,315.105,0c-18.47,0-35.94,5.962-50.522,17.243  c-0.014,0.011-0.08,0.063-0.098,0.076c-12.536,9.789-20.809,23.777-21.833,25.559h0c-0.046,0.078-0.091,0.157-0.134,0.236  c-6.577,12.058-10.053,25.726-10.053,39.527c0,2.866,0.15,5.767,0.448,8.621c0.277,2.667,1.873,5.017,4.248,6.26  c1.504,0.787,3.076,1.442,4.691,1.96c6.438,19.706,20.499,35.466,38.375,44.329c-7.663,3.914-14.545,9.089-20.498,15.418  c-3.027,3.218-2.872,8.281,0.347,11.308c3.218,3.026,8.281,2.871,11.308-0.347c2.861-3.042,5.992-5.744,9.369-8.088  c4.843,13.721,17.325,23.773,31.522,23.773h1.194c14.221,0,26.691-10.773,31.248-25.35c16.893,10.59,27.701,29.458,27.701,49.641  v83.099l-72.764,47.215c-3.707,2.405-4.762,7.359-2.356,11.065c1.532,2.361,4.099,3.646,6.718,3.646c1.493,0,3.002-0.417,4.347-1.29  l76.409-49.58c2.273-1.475,3.646-4.001,3.646-6.711v-87.444c0-28.331-15.816-53.725-40.812-66.396  c23.671-11.814,40.41-35.658,42.05-63.429c2.258-2.047,4.221-4.452,5.791-7.157C396.404,71.54,396.741,69.607,396.399,67.735z   M313.47,169.876h-1.194c-9.574,0-17.663-9.28-17.663-20.265c0-0.137-0.003-0.273-0.01-0.409c6.203,1.631,12.691,2.494,19.344,2.494  c5.686,0,11.235-0.634,16.572-1.835C329.893,160.677,322.195,169.876,313.47,169.876z M313.946,135.696  c-24.123,0-45.512-14.37-54.882-35.91c11.108-3.142,19.605-12.566,21.397-24.173c4.773,0.613,9.61,0.922,14.463,0.922  c16.272,0,31.948-3.411,45.987-9.943c3.618,12.425,15.11,21.531,28.688,21.531c0.99,0,1.974-0.05,2.949-0.148  C366.907,115.155,342.701,135.696,313.946,135.696z M369.599,72.124c-7.649,0-13.872-6.221-13.872-13.869v-4.452  c0-2.911-1.581-5.592-4.129-7.001c-2.549-1.41-5.661-1.323-8.125,0.226c-14.077,8.837-30.865,13.508-48.55,13.508  c-6.916,0-13.786-0.729-20.419-2.167c-2.363-0.513-4.833,0.072-6.717,1.591c-1.883,1.519-2.978,3.808-2.978,6.227v4.853  c0,7.647-6.222,13.869-13.87,13.869c-0.524,0-1.042-0.029-1.554-0.086c-0.119-0.018-0.238-0.033-0.357-0.045  c-0.179-0.024-0.356-0.053-0.533-0.084c-0.021-0.686-0.032-1.37-0.032-2.052c0-11.1,2.785-22.088,8.055-31.783  c0.021-0.039,0.043-0.077,0.06-0.106c0.068-0.123,7.294-12.65,17.741-20.813c0.021-0.017,0.048-0.037,0.053-0.041  C286.126,20.806,300.211,16,315.105,16c10.075,0,19.753,2.191,28.764,6.512c0.156,0.075,0.387,0.18,0.689,0.313  c8.897,3.952,15.728,10.348,19.918,15.059c0.046,0.054,0.093,0.107,0.141,0.161c7.55,8.377,12.826,18.469,15.374,29.354  C377.374,70.363,373.59,72.124,369.599,72.124z M245.81,276.808c18.128-10.667,30.322-30.386,30.322-52.897  c0-10.13-2.47-19.696-6.837-28.125c-0.157-0.354-0.336-0.691-0.536-1.011c-10.386-19.154-30.676-32.191-53.954-32.191  c-23.283,0-43.577,13.041-53.96,32.204c-0.194,0.312-0.369,0.641-0.522,0.985c-4.373,8.432-6.844,18.002-6.844,28.138  c0,22.507,12.188,42.222,30.311,52.89c-22.433,11.597-36.643,34.617-36.643,60.093v29.178c0,2.735,1.397,5.28,3.704,6.749  l59.659,37.98c1.311,0.834,2.803,1.251,4.296,1.251c1.484,0,2.968-0.412,4.273-1.237l59.8-37.781  c2.332-1.473,3.74-4.043,3.727-6.801l-0.141-29.377C282.343,311.32,268.148,288.376,245.81,276.808z M214.805,178.584  c13.925,0,26.401,6.31,34.723,16.222c-10.78,3.089-22.602,4.7-34.721,4.7c-12.123,0-23.946-1.611-34.725-4.7  C188.404,184.894,200.881,178.584,214.805,178.584z M169.478,223.911c0-5.197,0.879-10.194,2.497-14.847  c13.201,4.228,27.85,6.442,42.832,6.442c14.978,0,29.625-2.214,42.828-6.442c1.618,4.653,2.497,9.65,2.497,14.847  c0,24.993-20.333,45.327-45.327,45.327C189.812,269.238,169.478,248.904,169.478,223.911z M229.005,283.579  c-1,7.568-7.638,12.684-13.644,12.684h-0.974c-6.361,0-13.425-5.38-14.34-12.82c4.728,1.172,9.672,1.795,14.757,1.795  C219.69,285.238,224.446,284.663,229.005,283.579z M214.822,394.58l-51.676-32.898v-24.787c0-17.591,8.888-33.653,23.275-43.119  c4.999,11.407,16.783,18.487,27.966,18.487h0.974c12.073,0,22.745-7.857,27.355-18.773c14.595,9.41,23.663,25.598,23.748,43.443  l0.12,24.944L214.822,394.58z M157.359,179.842c2.332-3.753,1.18-8.686-2.572-11.018c-2.436-1.514-4.962-2.887-7.554-4.109  c9.886-5.054,18.631-12.293,25.573-21.348c2.859,0.992,5.928,1.532,9.12,1.532c15.373,0,27.88-12.507,27.88-27.88V97.138  c0-25.272-9.654-49.207-27.183-67.394C165.144,11.61,141.678,1.076,116.548,0.082c-0.002,0-0.005,0-0.007,0  c-2.184-0.084-4.217-0.104-6.216-0.055c-25.018,0.604-48.617,10.73-66.45,28.512c-18.283,18.23-28.352,42.593-28.352,68.6v19.881  c0,15.373,12.507,27.88,27.881,27.88c3.192,0,6.26-0.539,9.118-1.531c7.647,9.974,17.483,17.745,28.622,22.819  c-24.685,12.982-39.953,38.112-39.953,65.94v65.484c0,2.71,1.372,5.236,3.646,6.711l72.575,47.091  c1.345,0.873,2.854,1.29,4.347,1.29c2.619,0,5.187-1.286,6.718-3.646c2.405-3.707,1.35-8.661-2.356-11.065l-68.93-44.726v-61.139  c0-18.51,8.619-35.505,23.058-46.472c4.952,14.37,17.668,25.167,31.728,25.167h1.194c15.27,0,27.458-13.822,31.75-29.264  c0.477,0.278,0.95,0.563,1.419,0.854C150.094,184.747,155.027,183.594,157.359,179.842z M63.19,68.063  c-5.172,8.784-7.906,18.838-7.906,29.076v19.881c0,3.79-1.784,7.171-4.557,9.348c-0.238,0.155-0.465,0.321-0.681,0.497  c-1.897,1.285-4.184,2.035-6.643,2.035c-6.551,0-11.88-5.329-11.88-11.88V97.138c0-44.413,34.784-80.043,79.185-81.117  c1.66-0.041,3.365-0.023,5.213,0.048c43.673,1.731,77.884,37.34,77.884,81.069v19.881c0,6.551-5.33,11.88-11.881,11.88  c-2.459,0-4.747-0.751-6.645-2.036c-0.215-0.175-0.441-0.34-0.678-0.495c-2.773-2.177-4.558-5.559-4.558-9.349V97.138  c0-28.238-21.036-52.64-48.932-56.761c-2.193-0.326-4.422,0.276-6.155,1.658c-1.733,1.382-2.816,3.42-2.99,5.63  c-0.439,5.592-1.453,11.106-3.022,16.457H70.083C67.25,64.122,64.627,65.621,63.19,68.063z M113.171,194.823h-1.194  c-9.044,0-17.921-10.979-17.921-22.166c0-0.69-0.089-1.369-0.259-2.02c6.076,1.545,12.403,2.35,18.868,2.35  c6.12,0,12.118-0.722,17.895-2.109C130.016,182.511,121.212,194.823,113.171,194.823z M112.665,156.987  c-18.646,0-35.855-8.489-47.161-22.99c3.622-4.705,5.779-10.595,5.779-16.978V97.138c0-5.893,1.254-11.698,3.652-17.016h39.783  c3.349,0,6.343-2.085,7.504-5.227c2-5.41,3.509-10.991,4.513-16.675c16.017,5.83,27.309,21.343,27.309,38.918v19.881  c0,6.383,2.157,12.273,5.78,16.978C148.519,148.499,131.311,156.987,112.665,156.987z" transform="matrix(0.14561232924461365 0 0 0.14561232924461365 185.99999724488384 225)" id="L1_9"/><g transform="matrix(0.7095577716827393 0 0 0.7095577716827393 109.36556720733643 40.365567207336426)" id="L1_10"><path d="M46.605,4.22c-0.226-0.271-0.466-0.534-0.719-0.787c-0.254-0.254-0.517-0.494-0.788-0.72   c-2.696-2.25-6.217-2.948-9.656-1.915c-3.599,1.081-6.388,3.86-7.462,7.436c-0.421,1.4-0.885,2.659-1.378,3.795   c-6.588-5.5-14.908-10.421-18.095-7.233c-1.688,1.688-1.239,5.028,1.301,9.658c0.265,0.483,0.554,0.976,0.857,1.475   c-2.138,0.85-4.058,2.081-5.694,3.716c-6.628,6.628-6.628,17.413,0,24.042c3.314,3.314,7.667,4.971,12.021,4.971   c4.354,0,8.707-1.657,12.021-4.971c1.636-1.636,2.866-3.556,3.716-5.694c0.498,0.303,0.992,0.592,1.475,0.857   c2.794,1.532,5.118,2.304,6.893,2.304c1.167,0,2.096-0.333,2.766-1.003c3.071-3.071-1.284-10.813-6.653-17.398   c1.155-0.506,2.441-0.982,3.876-1.414c3.575-1.074,6.355-3.864,7.436-7.462C49.553,10.435,48.856,6.916,46.605,4.22z    M22.089,29.648c0.063,0.06,0.125,0.122,0.188,0.181c0.075,0.07,0.15,0.136,0.224,0.206c0.021,0.02,0.042,0.038,0.063,0.058   c0.38,0.355,0.76,0.704,1.142,1.047c0.116,0.105,0.232,0.214,0.348,0.317c0.009,0.008,0.019,0.016,0.028,0.024   c0.041,0.036,0.082,0.07,0.123,0.106c0.453,0.401,0.906,0.792,1.36,1.174c0.078,0.066,0.157,0.136,0.235,0.201   c0.5,0.418,0.999,0.82,1.497,1.213c0.112,0.089,0.224,0.178,0.336,0.266c-0.491,1.892-1.474,3.611-2.864,5.002   c-4.289,4.288-11.267,4.289-15.557,0c-4.289-4.289-4.289-11.268,0-15.557c1.39-1.39,3.109-2.372,5.002-2.864   c0.087,0.112,0.177,0.224,0.266,0.336c0.393,0.498,0.796,0.997,1.213,1.497c0.066,0.078,0.135,0.157,0.201,0.235   c0.382,0.453,0.774,0.907,1.174,1.36c0.036,0.041,0.07,0.082,0.106,0.123c0.008,0.009,0.016,0.019,0.024,0.028   c0.103,0.116,0.213,0.232,0.317,0.348c0.343,0.381,0.692,0.762,1.047,1.142c0.02,0.021,0.038,0.042,0.058,0.063   c0.07,0.075,0.136,0.15,0.206,0.224c0.059,0.063,0.122,0.125,0.181,0.188c0.497,0.523,1.001,1.044,1.518,1.562   S21.566,29.151,22.089,29.648z M27.599,42.272c-5.848,5.849-15.364,5.85-21.213,0c-5.849-5.849-5.849-15.365,0-21.213   c1.532-1.531,3.333-2.685,5.363-3.434c0.131,0.195,0.273,0.394,0.409,0.591c0.211,0.306,0.424,0.613,0.646,0.921   c0.045,0.063,0.086,0.124,0.131,0.187c-1.929,0.632-3.685,1.699-5.135,3.149c-5.068,5.068-5.068,13.316,0,18.385   c2.535,2.534,5.864,3.801,9.192,3.801c3.329,0,6.658-1.267,9.192-3.801c1.45-1.45,2.517-3.206,3.149-5.135   c0.063,0.046,0.125,0.086,0.187,0.131c0.309,0.222,0.615,0.435,0.921,0.646c0.197,0.136,0.396,0.278,0.591,0.409   C30.283,38.939,29.13,40.74,27.599,42.272z M42.448,38.736c-0.735,0.734-3.032,0.69-7.283-1.64   c-0.877-0.481-1.789-1.043-2.717-1.654c-0.264-0.174-0.529-0.35-0.795-0.533c-0.219-0.15-0.44-0.307-0.661-0.464   c-0.275-0.195-0.55-0.389-0.828-0.593c-0.275-0.203-0.552-0.417-0.829-0.629c-0.041-0.032-0.083-0.063-0.124-0.095   c-0.491-0.378-0.983-0.769-1.474-1.169c-0.121-0.099-0.242-0.195-0.364-0.296c-0.468-0.387-0.935-0.787-1.402-1.193   c-0.111-0.097-0.223-0.191-0.334-0.289c-0.086-0.076-0.173-0.154-0.259-0.231c-0.403-0.358-0.805-0.725-1.206-1.097   c-0.062-0.058-0.124-0.113-0.187-0.171c-0.13-0.121-0.26-0.241-0.39-0.364c-0.554-0.524-1.106-1.056-1.655-1.604   c-0.548-0.548-1.08-1.101-1.604-1.655c-0.123-0.13-0.243-0.26-0.364-0.39c-0.058-0.062-0.114-0.124-0.171-0.187   c-0.372-0.401-0.739-0.803-1.097-1.206c-0.077-0.086-0.155-0.173-0.231-0.259c-0.098-0.112-0.192-0.223-0.289-0.334   c-0.406-0.467-0.807-0.934-1.193-1.402c-0.101-0.122-0.196-0.243-0.296-0.364c-0.4-0.491-0.791-0.982-1.169-1.474   c-0.032-0.041-0.063-0.083-0.095-0.124c-0.212-0.277-0.426-0.554-0.629-0.829c-0.204-0.277-0.398-0.552-0.593-0.828   c-0.157-0.221-0.314-0.442-0.464-0.661c-0.183-0.266-0.359-0.531-0.533-0.795c-0.611-0.928-1.172-1.84-1.654-2.717   c-2.33-4.249-2.375-6.548-1.64-7.283c0.296-0.296,0.766-0.445,1.388-0.445c2.625,0,7.962,2.656,14.391,8.113   c-0.1,0.183-0.198,0.381-0.3,0.554c-0.009,0.015-0.018,0.031-0.027,0.046c-0.234,0.393-0.473,0.757-0.716,1.093   c-0.008,0.011-0.016,0.022-0.024,0.033c-0.243,0.333-0.489,0.635-0.739,0.908c-0.011,0.012-0.021,0.023-0.032,0.034   c-0.247,0.267-0.498,0.504-0.752,0.711c-0.016,0.013-0.033,0.025-0.049,0.038c-0.254,0.203-0.511,0.378-0.77,0.518l-1.256,0.677   l1.064,0.95c1.145,1.022,2.265,2.079,3.327,3.141c1.511,1.511,2.981,3.107,4.368,4.743l0.975,1.15l0,0l0.001,0.001l0.68-1.346   c0.134-0.264,0.305-0.526,0.504-0.786c0.012-0.015,0.022-0.031,0.034-0.047c0.202-0.258,0.437-0.513,0.702-0.765   c0.012-0.011,0.024-0.023,0.036-0.035c0.27-0.254,0.571-0.504,0.902-0.75c0.012-0.009,0.025-0.018,0.038-0.028   c0.334-0.246,0.698-0.489,1.092-0.726c0.016-0.01,0.034-0.019,0.05-0.029c0.174-0.104,0.375-0.204,0.56-0.306   C41.657,31.265,43.921,37.263,42.448,38.736z M46.605,13.301c-0.887,2.953-3.166,5.242-6.096,6.123   c-1.466,0.441-3.08,1.019-4.628,1.736l-0.017-0.02l-0.703,0.352c-0.042,0.021-0.076,0.043-0.117,0.064   c-0.228,0.116-0.445,0.244-0.668,0.367c-1.121,0.62-2.078,1.277-2.849,1.973c-0.054,0.048-0.116,0.092-0.168,0.141   c-0.34,0.32-0.647,0.646-0.913,0.98c-0.464-0.529-0.941-1.049-1.42-1.567c-0.718-0.777-1.445-1.543-2.186-2.285   c-0.794-0.794-1.619-1.585-2.462-2.36c0.329-0.268,0.651-0.577,0.965-0.917c0.057-0.062,0.109-0.136,0.165-0.2   c0.659-0.747,1.283-1.66,1.873-2.724c0.141-0.254,0.285-0.504,0.417-0.765c0.02-0.039,0.041-0.071,0.06-0.11l0.344-0.693   l-0.018-0.016c0.706-1.533,1.276-3.128,1.71-4.572c0.881-2.93,3.169-5.208,6.123-6.095c2.787-0.836,5.628-0.277,7.799,1.534   c0.225,0.188,0.443,0.387,0.656,0.6c0.211,0.21,0.411,0.429,0.598,0.653h0C46.881,7.672,47.441,10.515,46.605,13.301z"/><path d="M37.981,5.026c-1.737,0-3.424,0.831-4.751,2.339c-0.365,0.415-0.324,1.047,0.09,1.412c0.417,0.365,1.047,0.324,1.412-0.09   c1.91-2.173,4.588-2.173,6.498,0c0.198,0.225,0.474,0.339,0.751,0.339c0.234,0,0.47-0.082,0.66-0.249   c0.415-0.365,0.455-0.997,0.09-1.412C41.405,5.857,39.718,5.026,37.981,5.026z"/></g><g transform="matrix(0.6052091797788295 -0.20173638322025253 0.20173638322025253 0.6052091797788295 62.51141020336555 31.990800860072497)" id="L1_11"><path d="M24.244,28.025c0.391-0.391,0.391-1.023,0-1.414c-2.974-2.974-7.813-2.973-10.787,0c-0.391,0.391-0.391,1.023,0,1.414   s1.023,0.391,1.414,0c2.195-2.194,5.765-2.194,7.958,0c0.195,0.195,0.451,0.293,0.707,0.293S24.048,28.221,24.244,28.025z"/><path d="M38.857,24.376c-2.037,0-3.952,0.794-5.393,2.235c-0.391,0.391-0.391,1.024,0,1.414c0.391,0.391,1.024,0.391,1.414,0   c1.063-1.063,2.476-1.649,3.979-1.649s2.916,0.586,3.979,1.649c0.195,0.195,0.451,0.293,0.707,0.293s0.512-0.098,0.707-0.293   c0.391-0.391,0.391-1.023,0-1.414C42.809,25.17,40.894,24.376,38.857,24.376z"/><path d="M32.757,42.346c-2.152,2.151-5.655,2.152-7.808,0c-0.391-0.39-1.024-0.39-1.415,0c-0.39,0.391-0.39,1.024,0,1.415   c1.467,1.465,3.393,2.198,5.319,2.198s3.852-0.733,5.317-2.199c0.391-0.391,0.391-1.023,0-1.414S33.148,41.955,32.757,42.346z"/><path d="M57.96,31.884c0-3.043-2.157-5.551-4.909-5.841c-1.187-5.425-4.181-10.305-8.613-13.883   c0.002-0.026,0.004-0.051,0.004-0.077c0-1.617,0.49-4.186,1.38-7.232c0.073-0.251,0.07-0.51,0.007-0.755   c0.037-0.295,0.003-0.59-0.115-0.881c-0.947-2.32-5.886-1.026-8.656,0.105c-2.45,1-4.49,2.299-5.545,3.503   c-0.581-0.446-1.289-0.708-2.064-0.708h-0.585c-0.903,0-1.722,0.328-2.375,0.854c-1.178-1.451-3.618-2.815-5.662-3.649   c-1.834-0.749-3.663-1.234-5.148-1.366c-2.39-0.21-3.226,0.568-3.508,1.261c-0.296,0.725-0.066,1.472,0.475,2.189   c0.746,2.649,1.161,4.83,1.218,6.431c-4.669,3.608-7.806,8.607-9.023,14.218C2.122,26.376,0,28.866,0,31.884   c0,3.115,2.262,5.665,5.106,5.854c2.819,10.528,12.438,18.305,23.842,18.305c11.403,0,21.02-7.775,23.841-18.301   C55.664,37.587,57.96,35.023,57.96,31.884z M33.043,14.408v-3.813c0.125,0.005,0.26-0.001,0.391-0.003   c0.042,0.001,0.077,0.009,0.119,0.009c1.775,0,4.055-0.651,5.903-1.405c0.246-0.1,0.507-0.215,0.774-0.336   c0.081-0.037,0.16-0.072,0.242-0.11c0.234-0.109,0.471-0.225,0.712-0.348c0.113-0.058,0.225-0.118,0.338-0.178   c0.155-0.082,0.309-0.167,0.463-0.255c0.112-0.063,0.223-0.125,0.333-0.19c0.227-0.135,0.451-0.275,0.67-0.419   c0.042-0.027,0.087-0.053,0.129-0.08c-0.376,1.642-0.669,3.36-0.675,4.758c-0.034,0.436-0.17,3.124,1.41,5.458   c-2.318,0.117-7.873,0.135-10.809-2.146V14.408z M37.814,5.171c3.153-1.287,5.293-1.364,5.949-1.173   c-0.026,0.051-0.041,0.096-0.082,0.154c-0.002,0.002-0.003,0.004-0.005,0.007c-0.059,0.085-0.144,0.181-0.234,0.28   c-0.032,0.035-0.059,0.067-0.095,0.103c-0.064,0.066-0.146,0.138-0.222,0.208c-0.074,0.068-0.141,0.133-0.227,0.205   c-0.065,0.054-0.144,0.113-0.216,0.169c-0.112,0.088-0.219,0.175-0.347,0.268c-0.117,0.084-0.254,0.172-0.384,0.259   c-0.103,0.069-0.195,0.135-0.307,0.206c-0.782,0.491-1.765,1.007-2.943,1.487c-2.089,0.853-3.969,1.212-5.161,1.25   c-0.105,0-0.21,0.001-0.3-0.005c-0.023-0.191-0.066-0.378-0.128-0.559C33.868,7.23,35.501,6.114,37.814,5.171z M28.863,8.113h0.585   c0.998,0,1.595,1.008,1.595,1.982v4.312c0,1.014-0.611,1.644-1.595,1.644h-0.585c-1,0-1.813-0.813-1.813-1.813V9.926   C27.05,8.927,27.864,8.113,28.863,8.113z M15.87,12.038c-0.006-1.308-0.265-2.902-0.603-4.431c0.61,0.378,1.292,0.741,2.017,1.083   c0.021,0.01,0.042,0.02,0.063,0.03c0.136,0.063,0.272,0.126,0.411,0.188c0.23,0.103,0.455,0.201,0.669,0.288   C18.681,9.3,18.943,9.4,19.208,9.498c0.082,0.03,0.165,0.058,0.247,0.087c0.186,0.066,0.372,0.131,0.561,0.192   c0.101,0.033,0.201,0.063,0.303,0.095c0.174,0.054,0.348,0.106,0.522,0.156c0.108,0.03,0.215,0.059,0.323,0.088   c0.17,0.045,0.339,0.087,0.508,0.126c0.109,0.025,0.216,0.05,0.324,0.073c0.17,0.036,0.337,0.068,0.504,0.097   c0.103,0.018,0.206,0.038,0.308,0.054c0.18,0.028,0.356,0.048,0.532,0.068c0.082,0.009,0.167,0.021,0.248,0.028   c0.249,0.021,0.493,0.034,0.727,0.034c0.002,0,0.004,0,0.006,0c0.255,0,0.499-0.013,0.73-0.042v3.685v1.106   c-2.804,2.194-7.797,2.292-10.603,2.069C16.039,15.156,15.903,12.473,15.87,12.038z M20.07,5.171   c2.871,1.172,4.586,2.545,5.029,3.266c-0.006,0.031-0.012,0.063-0.017,0.094c-0.003,0.001-0.003,0.002-0.005,0.002   c-0.011,0.003-0.029,0.004-0.041,0.006c-0.09,0.019-0.197,0.035-0.326,0.044c-0.045,0.003-0.102,0.003-0.151,0.005   c-0.11,0.004-0.227,0.006-0.359,0.003c-0.071-0.002-0.152-0.008-0.229-0.013c-0.132-0.008-0.271-0.019-0.421-0.036   c-0.094-0.01-0.195-0.024-0.296-0.038c-0.156-0.022-0.321-0.049-0.492-0.08c-0.114-0.021-0.229-0.043-0.35-0.068   c-0.184-0.039-0.381-0.086-0.581-0.136c-0.126-0.032-0.25-0.061-0.382-0.098c-0.228-0.063-0.471-0.14-0.717-0.218   c-0.121-0.039-0.237-0.072-0.362-0.115c-0.379-0.13-0.773-0.275-1.188-0.444c-0.339-0.138-0.65-0.279-0.954-0.42   c-0.137-0.064-0.272-0.129-0.406-0.195c-0.145-0.071-0.283-0.142-0.418-0.213c-0.156-0.082-0.313-0.163-0.462-0.247   c-0.089-0.05-0.168-0.098-0.252-0.148c-0.238-0.138-0.464-0.278-0.678-0.418c-0.139-0.092-0.283-0.184-0.407-0.273   c-0.062-0.044-0.116-0.088-0.176-0.132c-0.134-0.1-0.265-0.199-0.378-0.292c-0.068-0.056-0.129-0.112-0.192-0.167   c-0.075-0.066-0.151-0.132-0.215-0.194c-0.117-0.114-0.226-0.227-0.316-0.336c-0.005-0.006-0.012-0.009-0.017-0.015   c-0.093-0.112-0.168-0.213-0.211-0.294C14.73,3.802,16.888,3.872,20.07,5.171z M2,31.884c0-1.752,1.048-3.219,2.471-3.694   c-0.132,1.042-0.205,2.099-0.205,3.17c0,1.461,0.135,2.89,0.379,4.281C3.132,35.234,2,33.709,2,31.884z M28.949,54.042   c-12.507,0-22.683-10.175-22.683-22.683c0-6.424,2.635-12.373,7.293-16.658c-0.161,0.518-0.391,1.056-0.746,1.559   c-0.436,0.618-0.503,1.422-0.175,2.097c0.327,0.672,0.969,1.097,1.719,1.136c0.51,0.026,1.088,0.044,1.711,0.044   c3.11,0,7.345-0.471,10.123-2.586c0.689,0.678,1.631,1.099,2.672,1.099h0.585c1.032,0,1.921-0.378,2.559-1.014   c2.782,2.042,7.015,2.502,10.156,2.502c0.653,0,1.258-0.019,1.792-0.046c0.749-0.039,1.391-0.463,1.718-1.135   c0.328-0.675,0.261-1.479-0.175-2.097c-0.211-0.299-0.369-0.612-0.506-0.925c4.246,4.237,6.638,9.944,6.638,16.024   C51.63,43.867,41.456,54.042,28.949,54.042z M53.247,35.665c0.247-1.399,0.384-2.836,0.384-4.305c0-1.078-0.077-2.143-0.212-3.195   c1.46,0.448,2.542,1.938,2.542,3.719C55.96,33.737,54.795,35.287,53.247,35.665z"/></g></defs><g fi:class="KUsePattern" opacity="0.09"><pattern id="pattern_L1_1" width="350" height="350" patternUnits="userSpaceOnUse"><use xlink:href="#L1_1" x="-350" y="-350"/><use xlink:href="#L1_1" x="0" y="-350"/><use xlink:href="#L1_1" x="350" y="-350"/><use xlink:href="#L1_1" x="-350" y="0"/><use xlink:href="#L1_1" x="0" y="0"/><use xlink:href="#L1_1" x="350" y="0"/><use xlink:href="#L1_1" x="-350" y="350"/><use xlink:href="#L1_1" x="0" y="350"/><use xlink:href="#L1_1" x="350" y="350"/></pattern><rect x="0" y="0" width="100%" height="100%" fill="url(#pattern_L1_1)"/></g><g fi:class="KUsePattern" opacity="0.1"><pattern id="pattern_L1_2" width="350" height="350" patternUnits="userSpaceOnUse"><use xlink:href="#L1_2" x="-350" y="-350"/><use xlink:href="#L1_2" x="0" y="-350"/><use xlink:href="#L1_2" x="350" y="-350"/><use xlink:href="#L1_2" x="-350" y="0"/><use xlink:href="#L1_2" x="0" y="0"/><use xlink:href="#L1_2" x="350" y="0"/><use xlink:href="#L1_2" x="-350" y="350"/><use xlink:href="#L1_2" x="0" y="350"/><use xlink:href="#L1_2" x="350" y="350"/></pattern><rect x="0" y="0" width="100%" height="100%" fill="url(#pattern_L1_2)"/></g><g fi:class="KUsePattern" opacity="0.08"><pattern id="pattern_L1_3" width="350" height="350" patternUnits="userSpaceOnUse"><use xlink:href="#L1_3" x="-350" y="-350"/><use xlink:href="#L1_3" x="0" y="-350"/><use xlink:href="#L1_3" x="350" y="-350"/><use xlink:href="#L1_3" x="-350" y="0"/><use xlink:href="#L1_3" x="0" y="0"/><use xlink:href="#L1_3" x="350" y="0"/><use xlink:href="#L1_3" x="-350" y="350"/><use xlink:href="#L1_3" x="0" y="350"/><use xlink:href="#L1_3" x="350" y="350"/></pattern><rect x="0" y="0" width="100%" height="100%" fill="url(#pattern_L1_3)"/></g><g fi:class="KUsePattern" opacity="0.08"><pattern id="pattern_L1_4" width="350" height="350" patternUnits="userSpaceOnUse"><use xlink:href="#L1_4" x="-350" y="-350"/><use xlink:href="#L1_4" x="0" y="-350"/><use xlink:href="#L1_4" x="350" y="-350"/><use xlink:href="#L1_4" x="-350" y="0"/><use xlink:href="#L1_4" x="0" y="0"/><use xlink:href="#L1_4" x="350" y="0"/><use xlink:href="#L1_4" x="-350" y="350"/><use xlink:href="#L1_4" x="0" y="350"/><use xlink:href="#L1_4" x="350" y="350"/></pattern><rect x="0" y="0" width="100%" height="100%" fill="url(#pattern_L1_4)"/></g><g fi:class="KUsePattern" opacity="0.1"><pattern id="pattern_L1_5" width="350" height="350" patternUnits="userSpaceOnUse"><use xlink:href="#L1_5" x="-350" y="-350"/><use xlink:href="#L1_5" x="0" y="-350"/><use xlink:href="#L1_5" x="350" y="-350"/><use xlink:href="#L1_5" x="-350" y="0"/><use xlink:href="#L1_5" x="0" y="0"/><use xlink:href="#L1_5" x="350" y="0"/><use xlink:href="#L1_5" x="-350" y="350"/><use xlink:href="#L1_5" x="0" y="350"/><use xlink:href="#L1_5" x="350" y="350"/></pattern><rect x="0" y="0" width="100%" height="100%" fill="url(#pattern_L1_5)"/></g><g fi:class="KUsePattern" opacity="0.08"><pattern id="pattern_L1_7" width="350" height="350" patternUnits="userSpaceOnUse"><use xlink:href="#L1_7" x="-350" y="-350"/><use xlink:href="#L1_7" x="0" y="-350"/><use xlink:href="#L1_7" x="350" y="-350"/><use xlink:href="#L1_7" x="-350" y="0"/><use xlink:href="#L1_7" x="0" y="0"/><use xlink:href="#L1_7" x="350" y="0"/><use xlink:href="#L1_7" x="-350" y="350"/><use xlink:href="#L1_7" x="0" y="350"/><use xlink:href="#L1_7" x="350" y="350"/></pattern><rect x="0" y="0" width="100%" height="100%" fill="url(#pattern_L1_7)"/></g><g fi:class="KUsePattern" opacity="0.09"><pattern id="pattern_L1_8" width="350" height="350" patternUnits="userSpaceOnUse"><use xlink:href="#L1_8" x="-350" y="-350"/><use xlink:href="#L1_8" x="0" y="-350"/><use xlink:href="#L1_8" x="350" y="-350"/><use xlink:href="#L1_8" x="-350" y="0"/><use xlink:href="#L1_8" x="0" y="0"/><use xlink:href="#L1_8" x="350" y="0"/><use xlink:href="#L1_8" x="-350" y="350"/><use xlink:href="#L1_8" x="0" y="350"/><use xlink:href="#L1_8" x="350" y="350"/></pattern><rect x="0" y="0" width="100%" height="100%" fill="url(#pattern_L1_8)"/></g><g fi:class="KUsePattern" opacity="0.09"><pattern id="pattern_L1_9" width="350" height="350" patternUnits="userSpaceOnUse"><use xlink:href="#L1_9" x="-350" y="-350"/><use xlink:href="#L1_9" x="0" y="-350"/><use xlink:href="#L1_9" x="350" y="-350"/><use xlink:href="#L1_9" x="-350" y="0"/><use xlink:href="#L1_9" x="0" y="0"/><use xlink:href="#L1_9" x="350" y="0"/><use xlink:href="#L1_9" x="-350" y="350"/><use xlink:href="#L1_9" x="0" y="350"/><use xlink:href="#L1_9" x="350" y="350"/></pattern><rect x="0" y="0" width="100%" height="100%" fill="url(#pattern_L1_9)"/></g><g fi:class="KUsePattern" opacity="0.1"><pattern id="pattern_L1_10" width="350" height="350" patternUnits="userSpaceOnUse"><use xlink:href="#L1_10" x="-350" y="-350"/><use xlink:href="#L1_10" x="0" y="-350"/><use xlink:href="#L1_10" x="350" y="-350"/><use xlink:href="#L1_10" x="-350" y="0"/><use xlink:href="#L1_10" x="0" y="0"/><use xlink:href="#L1_10" x="350" y="0"/><use xlink:href="#L1_10" x="-350" y="350"/><use xlink:href="#L1_10" x="0" y="350"/><use xlink:href="#L1_10" x="350" y="350"/></pattern><rect x="0" y="0" width="100%" height="100%" fill="url(#pattern_L1_10)"/></g><g fi:class="KUsePattern" opacity="0.08"><pattern id="pattern_L1_11" width="350" height="350" patternUnits="userSpaceOnUse"><use xlink:href="#L1_11" x="-350" y="-350"/><use xlink:href="#L1_11" x="0" y="-350"/><use xlink:href="#L1_11" x="350" y="-350"/><use xlink:href="#L1_11" x="-350" y="0"/><use xlink:href="#L1_11" x="0" y="0"/><use xlink:href="#L1_11" x="350" y="0"/><use xlink:href="#L1_11" x="-350" y="350"/><use xlink:href="#L1_11" x="0" y="350"/><use xlink:href="#L1_11" x="350" y="350"/></pattern><rect x="0" y="0" width="100%" height="100%" fill="url(#pattern_L1_11)"/></g></svg>